<svg xmlns="http://www.w3.org/2000/svg" width="110" height="76.645" viewBox="0 0 110 76.645"><defs><style>.a{fill:#a8d574;stroke:rgba(0,0,0,0);}.b,.d{fill:none;}.b{stroke:#a8d574;stroke-width:3px;}.c{stroke:none;}</style></defs><g transform="translate(-834 -3209)"><g transform="translate(833 3209)"><path class="a" d="M306.334,197.538H293c-.03,0-.058,0-.087,0l-.088,0c-.029,0-.056,0-.087,0s-.058,0-.087,0l-.087.006-.09.006-.087.009-.09.006c-.03,0-.059.006-.087.008l-.087.011-.088.011-.087.014c-.027,0-.059.008-.087.011l-.088.015-.087.014c-.032.008-.059.009-.09.015s-.056.012-.087.017-.059.014-.087.017l-.09.02-.087.02-.09.018c-.029.006-.056.015-.087.021s-.058.015-.087.021-.059.015-.088.021l-.088.023c-.03.011-.058.018-.088.026a.821.821,0,0,1-.087.026c-.029.011-.059.02-.087.027s-.058.02-.087.027l-.088.03-.088.029-.088.032c-.029.009-.059.02-.087.03l-.087.032-.087.033-.058.03-.087.036c-.03.012-.058.024-.088.035s-.059.027-.087.041-.059.026-.09.038-.056.027-.087.04l-.087.043c-.03.015-.059.03-.087.043l-.088.046c-.029.014-.059.029-.087.044s-.059.03-.09.044-.056.032-.087.047l-.087.049c-.03.015-.058.032-.087.047s-.061.033-.088.05l-.088.052c-.03.017-.058.033-.088.053s-.056.036-.087.053-.059.036-.087.055-.058.038-.088.058-.059.04-.087.059-.059.041-.09.062-.059.04-.087.061l-.087.064c-.03.021-.059.044-.087.065s-.059.046-.09.067-.058.046-.087.07-.058.046-.088.07-.056.049-.087.074-.059.049-.087.074-.059.049-.09.073-.059.052-.087.078-.059.053-.09.081-.059.053-.087.081l-.087.087-.088.087c-.029.03-.056.061-.087.09l-.087.091c-.032.032-.059.064-.09.094s-.059.064-.087.1-.059.065-.09.1-.056.068-.087.1-.059.07-.087.106l-.088.108c-.029.036-.059.074-.087.113s-.059.077-.09.117l-.087.119-.087.126c-.03.043-.059.087-.087.129s-.059.09-.09.134-.058.094-.087.138-.058.1-.088.146l-.087.154c-.029.053-.059.106-.087.16s-.059.112-.087.167-.061.117-.09.176-.058.123-.087.187-.059.132-.088.2-.059.141-.087.214-.058.154-.087.231-.059.17-.09.255-.059.187-.087.28-.062.213-.087.321c-.032.126-.062.251-.088.378a9.045,9.045,0,0,0-.187,1.836v22.258c.062.03.123.058.187.09l.088.041.087.044.087.04.058.03.087.043.087.043.088.038.087.043.09.036.087.04.087.038.087.04.088.038.087.035.09.036.087.038.087.036.088.036.088.036.087.035.088.032.087.035.087.032.09.035.087.032.09.03.087.033.087.03.088.029.087.035.087.027.09.027.087.032.09.027.087.03.087.024.088.026.087.026.09.026.087.024.087.024.088.027.088.023.087.021.088.024.087.021.087.024.088.021.088.021.088.021.087.021.087.02.087.018.09.018.087.017.088.018.087.018.087.017.087.015.09.017.087.012.088.017.087.015.09.012.053,0,.087.011.087.015.087.008.09.014.087.008.088.011.087.009.087.008.087.008.09.006.087.006.088.009.087,0,.09.026.087,0,.09,0,.087,0h.087l.09,0h.521a.837.837,0,0,0,.088,0c.032,0,.059,0,.088,0a.561.561,0,0,0,.088,0c.032,0,.059,0,.088,0a.861.861,0,0,0,.088-.008.579.579,0,0,0,.087-.009l.087-.009a.785.785,0,0,0,.087-.011.861.861,0,0,0,.088-.011l.087-.012a.618.618,0,0,1,.087-.017l.088-.012c.03,0,.059-.014.088-.02l.087-.02.088-.018a.68.68,0,0,1,.087-.024l.087-.024c.03-.008.059-.015.088-.024l.088-.027c.03-.008.058-.021.088-.029l.087-.03.087-.033a.541.541,0,0,0,.087-.035c.032-.012.059-.024.09-.035s.058-.029.087-.041.058-.027.088-.041a.665.665,0,0,0,.087-.044.916.916,0,0,0,.087-.044c.03-.015.059-.03.087-.047s.059-.032.09-.049a.6.6,0,0,0,.087-.049c.03-.017.058-.036.088-.056s.056-.04.087-.059a.993.993,0,0,0,.087-.061c.03-.021.058-.043.087-.065s.058-.041.088-.067.059-.049.087-.075.059-.049.09-.076.056-.055.087-.085.059-.058.087-.088.059-.061.09-.094.059-.065.087-.1l.09-.108c.029-.038.058-.076.087-.117s.059-.082.087-.128.061-.091.088-.137.059-.1.087-.149.059-.112.087-.17.059-.129.088-.192.059-.144.087-.22.061-.173.087-.265c.033-.115.064-.229.087-.35a4.305,4.305,0,0,0,.09-.59c.012-.16.02-.321.02-.483v-10.48H304.7v10.48a8.679,8.679,0,0,1-.043.9c-.021.213-.05.42-.087.628-.026.135-.053.274-.087.4-.026.106-.056.214-.088.324-.027.091-.055.178-.087.269l-.087.231c-.03.073-.058.143-.09.208s-.056.131-.087.193-.059.117-.09.175-.056.106-.087.16-.058.1-.087.146-.058.094-.088.14-.056.088-.087.132l-.087.125c-.03.04-.058.079-.087.117l-.088.111c-.027.036-.056.07-.087.106s-.058.065-.087.1-.058.067-.087.1-.061.062-.09.091a.962.962,0,0,1-.087.088.676.676,0,0,1-.088.087c-.027.029-.059.053-.087.082s-.058.052-.087.079-.059.049-.088.074-.056.047-.088.071l-.087.071c-.029.018-.058.041-.088.062s-.056.046-.087.067-.059.043-.087.061-.059.041-.09.062-.058.036-.087.056a.95.95,0,0,0-.088.056.915.915,0,0,0-.087.055c-.029.015-.056.033-.087.053s-.058.032-.087.049-.058.032-.09.049l-.087.049c-.027.014-.058.032-.088.046l-.087.046c-.032.015-.059.032-.09.046s-.056.029-.087.044-.058.03-.087.043-.059.03-.087.043l-.088.043-.088.041c-.03.012-.058.027-.088.04l-.088.038-.088.036-.087.036c-.029.014-.058.024-.087.035s-.058.024-.087.036-.059.021-.088.032l-.088.032-.088.033c-.029.009-.059.018-.088.03l-.088.03-.087.029a.737.737,0,0,1-.087.03l-.087.027-.09.027-.087.026-.088.026c-.029.008-.059.014-.087.023s-.059.015-.09.023l-.087.026q-.043.014-.087.023c-.03.009-.059.015-.087.024l-.088.021c-.029.008-.056.017-.087.023l-.09.02-.087.018c-.029.006-.058.015-.087.02l-.087.017-.088.02a.8.8,0,0,1-.087.018l-.087.017-.088.018-.087.017a.4.4,0,0,0-.087.017l-.09.015-.087.012c-.03.006-.059.012-.087.015l-.088.017-.087.012-.09.014a.8.8,0,0,1-.087.012l-.087.014-.087.009-.088.014-.088.011-.088.012-.087.009-.087.012-.087.009-.088.008-.087.011-.087.008-.088.008-.087.009-.088.008-.088,0-.088.009-.088,0-.087,0-.09.009-.087.006-.087,0-.088,0-.087,0-.087,0-.087,0-.088,0-.088,0-.088,0-.087,0-.087,0-.087,0-.088,0h-.088l-.088,0-.087,0h-1.224l-.087,0h-.087l-.087,0h-.176l-.09,0-.087,0-.088,0-.087,0h-.087l-.087,0-.088,0-.087,0-.09,0-.087,0-.087,0-.09,0-.087,0-.09,0-.087-.009-.087,0-.088,0-.088,0-.088-.009-.087,0-.087,0-.087-.011-.088-.006-.088-.008-.088-.006-.087-.006-.087-.006-.087-.009-.09-.008-.087-.009-.088-.009-.087-.008-.09-.009-.087-.011-.087-.008-.087-.009-.088-.008-.087-.009-.09-.011-.087-.012-.087-.009-.087-.012-.088-.011-.088-.011-.088-.011-.087-.011-.087-.014-.088-.012-.087-.009-.088-.012-.088-.012-.087-.014-.087-.011-.09-.012-.087-.015-.088-.012-.087-.014-.087-.015-.09-.012-.087-.012-.09-.015-.087-.012-.087-.018-.088-.014-.087-.015-.087-.015-.09-.015-.087-.017-.09-.012-.087-.02-.087-.015-.088-.017-.087-.017-.088-.017-.088-.017-.087-.018-.087-.018-.09-.02L285.5,233l-.088-.018-.087-.02-.087-.017-.087-.021-.09-.017-.087-.021-.088-.02-.087-.018-.087-.021-.09-.021-.087-.024-.087-.021-.088-.023-.187-.047v19.031h13.37l.088,0,.088,0h.087l.087,0,.087-.006c.03,0,.058,0,.088,0l.087-.006.087-.009c.03-.006.058-.006.088-.011a.789.789,0,0,0,.087-.008.62.62,0,0,1,.09-.009l.087-.015.087-.011c.03-.006.059-.008.087-.012l.088-.015c.029-.006.056-.011.087-.015l.09-.017a.542.542,0,0,0,.087-.017l.087-.017.087-.02.09-.018.087-.021c.03-.009.058-.018.088-.024l.087-.021c.03-.008.059-.014.087-.023l.09-.026.087-.023.09-.026c.027-.011.059-.02.087-.027s.058-.021.087-.03.058-.018.088-.027l.087-.032.087-.032.09-.032c.029-.011.059-.024.087-.033l.09-.033.087-.036a.655.655,0,0,1,.087-.036l.088-.04.087-.041c.032-.012.059-.026.09-.038l.087-.043c.029-.012.058-.027.087-.043a.766.766,0,0,0,.087-.043c.032-.017.061-.03.09-.044l.087-.046.088-.044a.542.542,0,0,0,.087-.049.943.943,0,0,0,.087-.044.727.727,0,0,0,.088-.05,1,1,0,0,0,.088-.049.738.738,0,0,0,.087-.053.522.522,0,0,0,.088-.053c.029-.014.056-.035.087-.052a.934.934,0,0,0,.087-.053l.09-.058c.03-.02.058-.041.087-.059a1,1,0,0,0,.088-.059c.029-.02.059-.041.087-.062s.059-.043.087-.064.058-.043.087-.064.059-.044.09-.065.059-.047.087-.07l.088-.073c.029-.023.056-.046.087-.071l.087-.074.087-.074c.03-.029.058-.053.088-.079s.056-.055.087-.082.058-.053.087-.084l.087-.087.088-.085.088-.088c.03-.03.061-.059.088-.091s.059-.062.088-.1.058-.064.088-.1.056-.064.087-.1a1.156,1.156,0,0,0,.087-.1c.03-.033.058-.07.088-.106s.056-.074.087-.111l.087-.112c.03-.04.058-.078.087-.12s.059-.081.088-.122l.087-.125c.029-.046.059-.088.087-.132s.059-.091.09-.135.058-.094.087-.138.059-.1.087-.146.061-.1.088-.154.056-.108.087-.161.059-.116.087-.17.058-.119.088-.178.059-.128.087-.192.059-.135.087-.2.062-.147.09-.22.056-.155.087-.234.059-.175.087-.261.059-.193.088-.29c.03-.116.061-.223.087-.336.032-.134.061-.269.087-.407.036-.179.065-.357.09-.541a9.066,9.066,0,0,0,.074-1.158h.044V197.538h-.164Z" transform="translate(-264.9 -185.334)"/><path class="a" d="M322.738,197.538h-13.3c-.029,0-.059,0-.087,0l-.09,0c-.027,0-.056,0-.087,0s-.058,0-.087,0l-.088.006-.087.006-.088.009-.088.006c-.029,0-.059.006-.087.011l-.087.008-.088.011-.087.014c-.029,0-.058.008-.087.011l-.087.015-.088.014-.087.015c-.032.006-.059.012-.09.017l-.087.017q-.043.007-.087.018l-.087.018-.088.02c-.029.006-.056.015-.087.021s-.058.014-.087.021-.058.014-.088.021l-.087.024c-.029.009-.058.015-.087.024l-.087.026c-.03.008-.058.017-.088.027s-.059.017-.087.024l-.09.03-.087.03-.09.032-.087.032c-.029.008-.058.02-.087.03s-.059.024-.087.035-.061.023-.09.033l-.087.036-.088.036-.087.038-.087.038c-.03.012-.058.027-.087.04l-.09.043-.087.043-.088.046-.087.044c-.03.012-.059.03-.087.044s-.059.03-.09.046a.962.962,0,0,0-.087.049c-.03.015-.058.029-.088.047a.978.978,0,0,0-.087.05c-.032.017-.059.033-.088.052s-.058.033-.088.053-.056.035-.087.055-.059.036-.087.055l-.088.058c-.029.018-.056.038-.087.059s-.059.041-.088.059-.058.043-.088.062-.059.043-.087.064-.058.044-.087.065-.059.044-.088.065-.059.047-.088.07-.058.047-.088.07l-.087.073c-.029.026-.059.049-.087.074s-.058.049-.087.076l-.088.079c-.032.027-.059.053-.088.081l-.088.081-.087.087-.087.087c-.03.03-.058.061-.087.09s-.058.062-.088.091-.059.062-.087.094-.058.064-.087.1-.059.065-.088.1l-.088.1c-.03.035-.059.07-.087.106s-.061.073-.09.108-.059.074-.087.116-.058.078-.088.117-.059.078-.087.119-.058.085-.087.125l-.088.132c-.029.044-.056.09-.087.134s-.059.093-.087.14-.058.1-.087.146-.058.1-.088.154-.059.106-.087.16-.059.112-.09.167-.059.117-.087.176-.059.123-.09.187-.059.132-.087.2-.059.143-.087.216-.059.152-.087.231-.059.167-.088.252-.059.187-.087.28-.059.213-.087.321c-.035.123-.062.251-.087.378a9,9,0,0,0-.187,1.835v11.821c.059-.052.123-.1.187-.155.027-.023.056-.047.087-.07l.087-.068.087-.065c.03-.023.058-.044.088-.065l.087-.062.087-.061.087-.061c.032-.018.061-.038.09-.056l.087-.058c.03-.02.061-.038.09-.055s.058-.036.087-.053.058-.035.088-.053l.087-.052c.029-.017.058-.035.087-.05s.058-.032.087-.049l.088-.047.087-.047c.03-.015.058-.032.087-.047l.088-.044.087-.044.09-.046.087-.044c.032-.012.059-.027.088-.04l.088-.041.087-.041.087-.038.088-.038.087-.036.087-.035.087-.036.088-.033.088-.035c.029-.012.058-.023.088-.033l.087-.033.087-.032.087-.032.088-.03.088-.032c.029-.011.058-.018.088-.029l.087-.03c.03-.009.059-.02.087-.027l.088-.027.088-.027.087-.026.088-.026.087-.026.087-.026.088-.024.088-.024.087-.023.088-.023.074-.021.088-.021.088-.021.087-.021.087-.021.087-.02.09-.018.087-.02.088-.02.087-.018.087-.017.088-.017.088-.018.087-.017.088-.017.087-.015.09-.015.087-.014.09-.015.087-.015.087-.015.087-.011.088-.014.087-.014.087-.011.073-.027.087-.011.087-.011.088-.012.087-.011.087-.011.09-.011.087-.009.087-.011.088-.008.087-.011.087-.008.088-.008.087-.009.087-.008.087-.008.09-.006.087-.006.088,0,.087-.006.087-.006.09,0,.087-.006.087,0,.088,0,.087,0,.087,0,.087,0,.088,0,.087,0,.09,0,.087,0,.087,0,.088,0,.087,0h.087l.09,0,.087,0,.087,0h.088l.088,0h.956l.087,0h.087l.088,0,.085.008h.088l.09,0h.087l.087,0,.09,0,.087,0,.088,0,.087,0,.085.006.087,0,.087,0h.043l.046,0,.088,0,.079.008.091,0,.087.006.088,0,.087,0,.087.006.088.006.087.006.087.006.087.008.088.008.087.009.087.006.087.009.088.006.087.008.065.02.085.006.087.009.088.011.088.008.088.011.087.009.087.011.087.011.088.011.088.011.088.011.087.011.087.011.088.012.088.011.087.012.088.014.087.012.087.015.09.011.087.012.088.014.087.015.087.012.09.012.087.014.087.014.088.015.087.015.09.015.087.015.087.017.087.015.088.014.088.018.088.014.087.015.087.017.087.015.088.017.087.02.087.017.088.017.087.017.088.017.085.018.091.018.088.017.087.018.087.018.088.017.087.02.12.047.088.018.088.02.088.018.087.02.087.018.088.021.088.021.087.02.088.021.087.021v3.823l-.087-.046-.088-.043-.087-.044-.088-.043-.088-.043-.087-.044-.087-.041-.088-.043-.088-.039-.088-.041-.087-.039-.087-.041-.09-.038-.088-.049-.088-.038-.087-.04-.09-.038-.087-.035-.09-.036-.087-.036-.087-.036-.087-.035-.088-.035-.087-.033-.087-.033-.088-.032-.087-.032-.085-.032-.091-.03-.087-.032-.087-.029-.088-.029-.087-.029-.087-.027-.087-.027-.088-.029-.087-.027-.087-.027-.091-.026-.088-.024-.087-.026-.087-.026-.087-.023-.088-.024-.087-.023-.087-.021-.088-.021-.087-.021-.091-.021-.087-.021-.087-.02-.088-.018-.087-.02-.087-.017-.088-.017-.087-.017-.087-.017-.087-.015-.088-.017-.091-.015-.087-.015L315,218.56l-.088-.012-.087-.014-.087-.012-.091-.014-.087-.012-.088-.011-.087-.012-.087-.009-.088-.011-.087-.008-.085-.011-.087-.009-.087-.009-.088-.006-.087-.008-.087-.008-.053,0-.034,0-.088-.006-.088,0-.088,0-.087,0-.087,0-.087,0-.088,0-.087,0h-.087l-.09,0h-.173l-.09,0h-.087l-.09,0c-.03,0-.058,0-.087,0s-.058,0-.088,0l-.087,0-.087,0-.087.006-.088.006-.087.006c-.03,0-.058,0-.087.009l-.088.009-.087.011-.087.008-.087.014-.088.012-.087.012-.09.015-.087.012c-.029.008-.058.011-.087.018l-.087.017c-.032,0-.061.011-.09.017l-.087.017c-.03.009-.058.015-.088.021l-.087.021c-.029.006-.058.015-.087.021s-.059.015-.087.021l-.09.026-.087.026-.088.024c-.029.011-.056.017-.087.027l-.087.029c-.03.011-.058.021-.088.029a.861.861,0,0,1-.087.035l-.087.032c-.03.009-.059.023-.087.033s-.061.023-.09.033l-.087.038c-.03.014-.058.027-.088.038l-.087.041c-.029.017-.058.03-.087.044l-.09.043c-.029.014-.058.03-.087.046s-.059.029-.087.044-.061.032-.088.049l-.087.049c-.03.017-.058.036-.087.053s-.058.036-.088.055-.059.036-.087.056-.058.04-.087.059a.883.883,0,0,0-.087.061c-.032.021-.059.041-.09.064s-.059.046-.087.068-.059.047-.088.07-.059.047-.087.073-.058.049-.087.076-.058.053-.087.079l-.088.084-.087.085-.087.094a1.065,1.065,0,0,0-.087.1c-.03.033-.058.065-.088.1s-.056.07-.087.106-.059.075-.087.113-.059.081-.09.119-.059.085-.087.128-.059.088-.09.135-.059.1-.087.146-.059.1-.088.158-.061.114-.087.172-.061.123-.088.187-.061.135-.088.2-.059.155-.087.234-.059.176-.087.264c-.032.1-.062.211-.088.319-.033.135-.061.274-.087.412-.04.208-.068.421-.09.641-.023.252-.035.514-.035.781s.012.529.035.781c.021.22.052.432.09.638.026.141.053.278.087.412.026.106.058.213.088.318s.056.178.087.264.055.155.087.234.058.135.088.205.056.126.088.187.058.116.087.17.058.1.088.155.056.1.087.146.059.093.09.137l.087.128c.03.038.059.078.09.119l.087.113.087.108c.03.035.058.07.088.1s.056.064.087.1.058.059.087.091.058.059.087.087.058.056.088.085.056.053.087.079l.087.075c.027.027.058.047.087.074l.088.068c.029.021.056.044.087.065s.059.043.09.064.056.04.087.061a.958.958,0,0,1,.087.058c.027.015.058.037.087.053s.058.038.088.053.056.036.087.053a.451.451,0,0,1,.087.049.631.631,0,0,1,.088.047c.027.014.056.032.087.044l.087.044c.032.015.059.03.09.043s.058.032.087.046.059.027.087.04.058.026.088.041l.087.038a.925.925,0,0,1,.09.036c.029.011.056.023.087.033s.058.021.087.033.058.021.087.032l.088.03c.029.008.056.018.087.027s.058.021.087.03l.088.024.087.026.09.026c.027,0,.056.015.087.021s.058.015.087.021l.087.021c.03.008.058.017.088.021a.8.8,0,0,0,.087.017.632.632,0,0,0,.09.018c.027.009.056.011.087.018s.058.011.087.018l.087.014.09.012c.027,0,.058.009.087.015l.088.012.087.012.087.009.087.011.088.009a.8.8,0,0,0,.087.008c.03,0,.059,0,.087.009l.088,0,.087.008.087,0,.087,0c.03,0,.058,0,.088,0s.059,0,.087,0l.09,0h.087l.09,0h.173l.09,0h.087l.087,0,.088,0,.082,0,.087,0,.091.041.088,0,.088,0,.088-.009h.034l.053,0,.087-.009.087-.009.085-.006.088-.008.144,0,.087-.011.087-.008.087-.011.088-.014.087-.012.087-.009.088-.014.087-.014.087-.012.091-.014.085-.014.087-.014.088-.017.088-.015.088-.015.087-.017.087-.017.087-.021.088-.017.088-.02.088-.018.087-.021.087-.017.087-.021.09-.021.087-.021.088-.021.087-.026.087-.023.09-.024.087-.024.087-.026.088-.024.087-.027.09-.026.087-.024.087-.03.087-.027.088-.027.088-.03.088-.029.087-.03.087-.029.088-.03.088-.032.087-.032.088-.033.087-.035.087-.033.088-.033.087-.035.087-.033.087-.036.088-.035.087-.04.087-.035.091-.036.088-.041.087-.039.087-.038.087-.038.088-.043.087-.043.087-.041.091-.04.088-.043.087-.043.087-.043.087-.043.088-.043.082-.032.088-.043.087-.044v3.82l-.087.021-.088.021-.087.021-.087.021-.088.021-.087.021-.087.021-.087.018-.091.02-.088.021-.087.017-.087.021-.088.017-.087.02-.087.018-.087.017-.091.021-.088.017-.087.018-.087.017-.088.017-.087.017-.087.02-.087.017-.088.015-.087.017-.087.018-.087.015-.09.015-.087.015-.088.017-.087.017-.087.015-.09.015-.087.014-.088.015-.087.017-.087.014-.09.015-.087.012-.087.012-.088.015-.087.012-.09.014-.087.017-.087.012-.087.011-.088.014-.088.012-.088.015-.087.009-.087.012-.087.011-.09.011-.087.011-.088.011-.087.011-.087.011-.087.008-.09.009-.087.012-.088.008-.085.011-.091.008-.087.009-.087.006-.087.009-.088.006-.087.008-.087.009-.088,0-.087.008-.087,0-.087.009-.088.006-.087,0-.087.006-.088,0-.091,0-.087,0-.087,0h-.044l-.043,0-.088,0-.087,0-.087,0-.088,0-.087,0-.087,0h-.09l-.087,0h-.087l-.09,0h-.176l-.087,0h-1.4l-.087,0h-.09l-.087,0h-.088l-.087,0-.087,0h-.087l-.09,0h-.087l-.088,0-.087,0-.087,0-.087,0-.088,0-.087,0-.087,0-.09-.006-.087-.006-.087-.009-.088,0-.087,0-.09-.009-.087,0-.087-.008-.088-.009-.087-.009-.087-.008-.087-.009-.088-.008-.087-.014-.087-.008-.09-.009-.087-.012-.087-.011-.088-.011-.087-.011-.087-.014-.088-.012-.087-.011-.087-.012-.087-.014-.088-.015-.087-.014-.087-.015-.09-.015-.087-.017-.09-.014-.087-.017-.087-.014-.088-.018-.088-.018-.088-.017-.087-.018-.087-.017-.087-.018-.088-.02-.088-.021-.088-.018-.087-.02-.087-.021-.087-.021-.09-.026-.087-.021-.088-.024-.087-.021-.09-.026-.087-.024-.087-.027-.087-.024-.088-.026-.087-.027-.09-.029-.087-.029c-.029-.011-.059-.02-.087-.027s-.058-.02-.087-.032l-.088-.03-.088-.029c-.03-.014-.058-.021-.088-.035s-.056-.021-.087-.032l-.087-.032c-.03-.012-.058-.024-.088-.033l-.087-.036-.088-.035-.088-.036-.087-.036-.087-.038-.088-.038-.087-.038-.087-.041-.087-.04-.088-.043c-.032-.014-.059-.029-.088-.043l-.088-.043-.088-.046-.088-.044-.087-.044-.087-.047-.087-.047-.088-.044-.087-.049c-.03-.015-.058-.035-.087-.049s-.058-.032-.088-.049l-.087-.053a.572.572,0,0,1-.087-.053c-.032-.017-.059-.036-.09-.053l-.087-.058c-.032-.02-.059-.041-.09-.059l-.087-.055c-.03-.02-.059-.041-.087-.062s-.059-.04-.088-.061-.056-.041-.087-.062-.058-.043-.087-.065l-.087-.068c-.03-.023-.059-.047-.088-.07-.064-.052-.125-.1-.187-.155v20.85h13.375c.03,0,.056,0,.087,0l.087,0c.027,0,.058,0,.087,0l.088,0,.087-.006c.032,0,.055,0,.087,0l.087-.006.09-.009a.566.566,0,0,1,.087-.008l.09-.014c.032,0,.055,0,.087-.008l.088-.014.087-.011c.032-.006.059-.008.09-.012s.056-.011.087-.015.058-.012.087-.017l.087-.014.088-.018.087-.017c.033-.006.058-.014.09-.02l.087-.021.087-.021c.032,0,.055-.015.087-.021s.061-.014.088-.021.055-.014.088-.024.058-.014.088-.021l.087-.026.087-.026c.03-.011.058-.021.088-.03s.056-.017.088-.027.056-.018.087-.027l.088-.033.087-.03.087-.032c.032-.011.059-.023.09-.035s.058-.021.087-.032l.088-.036.087-.038.087-.036.087-.041c.03-.012.058-.024.088-.04s.056-.027.087-.041.061-.029.087-.044.058-.03.087-.044.062-.03.093-.046.056-.029.087-.046l.087-.046.087-.047.088-.046a.936.936,0,0,1,.087-.047c.029-.015.055-.033.087-.05l.087-.053a.783.783,0,0,0,.088-.052c.029-.015.056-.036.087-.055a.528.528,0,0,0,.087-.056.858.858,0,0,0,.088-.055.681.681,0,0,0,.091-.061c.029-.018.056-.04.087-.061s.055-.038.087-.061.056-.041.087-.062.056-.044.088-.065a.992.992,0,0,0,.087-.065l.087-.07.088-.07c.033-.026.059-.049.091-.074l.087-.073.087-.076c.03-.027.058-.049.087-.079l.088-.078c.032-.03.056-.053.087-.084s.059-.058.087-.087.059-.056.088-.087.059-.058.087-.088.059-.059.091-.091.055-.061.087-.1.056-.061.087-.1l.088-.1c.029-.037.055-.07.087-.106s.055-.073.087-.108.056-.073.088-.108.055-.074.087-.115.058-.079.085-.119.059-.081.087-.122.059-.082.09-.128.056-.088.087-.131.059-.09.087-.134.059-.1.088-.14a1.619,1.619,0,0,0,.087-.147,1.734,1.734,0,0,0,.087-.155c.033-.053.059-.106.09-.161s.059-.112.087-.17.059-.119.087-.178.059-.126.088-.187.059-.138.087-.207.059-.144.09-.217.056-.158.087-.239.059-.172.087-.258.059-.193.087-.292.058-.222.088-.334c.033-.132.061-.271.088-.406.037-.179.064-.357.088-.541a9.672,9.672,0,0,0,.073-1.158v0h0V197.538h-.161Z" transform="translate(-256.516 -185.334)"/><path class="a" d="M339.219,197.543H325.907a.794.794,0,0,1-.087,0l-.087,0c-.03,0-.058,0-.087,0s-.058,0-.088,0l-.087.006-.091,0-.087.008a.811.811,0,0,1-.088.009c-.029,0-.056.006-.087.009l-.087.008c-.03,0-.059.006-.087.011l-.091.011-.088.014c-.029,0-.056.008-.087.012l-.087.015-.088.012-.087.017a.87.87,0,0,1-.087.017l-.087.018-.09.018c-.032.006-.058.015-.087.02s-.058.015-.088.021l-.087.021-.087.023c-.032.009-.059.017-.09.023l-.087.026-.087.026-.09.026c-.032.008-.059.018-.087.027l-.09.027-.087.03-.09.032c-.027.008-.059.021-.087.029l-.088.032-.087.033-.088.035c-.03.011-.058.023-.088.036l-.087.035-.087.038c-.035.014-.058.026-.09.04s-.055.027-.087.04l-.088.043-.087.043c-.032.015-.055.03-.087.044s-.055.03-.087.046a.957.957,0,0,0-.09.044c-.03.015-.058.032-.087.047s-.058.029-.088.046a.982.982,0,0,1-.087.05c-.029.014-.058.033-.087.05l-.09.052c-.029.017-.055.035-.087.053l-.087.055-.09.058-.087.055-.09.059c-.03.02-.055.041-.087.062l-.088.061c-.027.02-.055.043-.087.064s-.055.043-.087.064l-.087.068-.088.067-.087.07-.085.073c-.032.026-.058.049-.087.074s-.062.05-.091.076l-.087.076-.088.081-.087.082a.918.918,0,0,0-.087.084c-.035.03-.062.058-.091.088s-.058.059-.088.088-.056.062-.087.091l-.087.094c-.03.032-.058.064-.087.1s-.058.064-.088.1-.056.068-.087.1-.058.068-.087.1-.058.073-.088.109a1.409,1.409,0,0,0-.087.114c-.032.036-.058.074-.087.114s-.059.082-.087.122-.061.084-.091.125-.058.088-.088.131-.056.088-.087.134-.058.093-.087.14-.058.1-.088.144-.056.1-.087.152-.058.106-.087.16-.059.112-.087.169-.059.116-.091.176-.058.123-.088.187-.055.134-.087.2-.058.141-.087.214-.058.155-.088.231-.056.17-.087.255-.059.187-.087.28-.059.213-.087.319c-.036.125-.062.252-.091.38a9.063,9.063,0,0,0-.187,1.841v9.377h12.909l.088,0,.087,0,.087,0,.087,0,.088,0,.087,0,.091,0,.087,0,.052,0,.035,0,.088,0,.087.006.087.008.088.006.087.011.087.008.087.011.09.011.079-.006.087.014a.737.737,0,0,1,.087.014l.088.015.088.017c.032,0,.056.014.088.017l.087.018c.032.006.059.014.09.018s.056.015.087.021l.09.023c.03.008.055.015.087.021s.055.018.087.026.059.017.087.027.056.018.088.026l.087.03a.879.879,0,0,1,.09.029l.087.032.09.032a.866.866,0,0,0,.087.036c.032.012.059.026.087.038s.059.023.09.036a.894.894,0,0,0,.087.04c.03.014.058.03.087.043l.088.046.087.044c.032.015.058.032.09.047s.055.033.087.05l.087.053c.03.017.055.037.087.056s.059.038.088.056.059.041.088.062l.088.064.087.07c.029.023.058.046.087.071s.058.052.087.078.058.052.088.081.056.055.088.084.059.062.085.093a1.106,1.106,0,0,1,.091.1c.03.033.058.068.088.1s.056.074.087.112a1.292,1.292,0,0,1,.087.123c.032.046.058.09.087.137a1.475,1.475,0,0,1,.088.149c.032.055.061.112.087.169a1.89,1.89,0,0,1,.087.2c.036.079.062.158.091.239a3.214,3.214,0,0,1,.088.31,3.452,3.452,0,0,1,.087.526,4.145,4.145,0,0,1,.023.438,3.826,3.826,0,0,1-.023.42,3.944,3.944,0,0,1-.087.517c-.026.1-.056.208-.088.307-.029.082-.056.158-.091.239-.026.065-.053.134-.087.2s-.055.117-.087.175-.056.1-.088.152-.055.094-.087.138-.055.085-.087.128-.055.079-.087.117l-.088.108c-.029.033-.059.065-.091.1s-.055.064-.085.1l-.088.088c-.03.03-.058.058-.088.085s-.056.053-.087.079-.058.05-.087.076l-.087.07c-.03.024-.061.046-.088.068s-.059.043-.088.064-.058.04-.088.059-.056.038-.087.058-.058.035-.087.055-.058.033-.087.052l-.09.049c-.03.014-.058.032-.087.046s-.061.03-.088.046-.056.029-.087.044-.058.03-.087.043-.058.026-.09.038a.926.926,0,0,1-.087.038l-.087.036-.09.033a.867.867,0,0,0-.087.035.558.558,0,0,0-.09.029c-.032.011-.055.021-.087.03l-.088.029c-.027.009-.055.018-.087.026s-.055.02-.087.026l-.087.023c-.032.008-.056.015-.09.024s-.058.012-.087.017l-.09.021-.087.018-.088.018c-.032.006-.059.011-.088.014l-.088.018-.081.008v.106l.081.006.088.006.088.009.088.009.087.009.09.009.087.012.09.014.087.015c.032,0,.055.011.087.014l.087.015.088.02a.577.577,0,0,1,.087.017.447.447,0,0,1,.09.02c.029.006.056.011.087.018s.058.015.09.021a.554.554,0,0,0,.087.021l.087.026c.032.008.059.017.09.026l.087.024c.027.009.058.021.087.03s.058.018.088.027l.087.03c.032.011.058.023.09.032s.055.021.087.032.055.023.087.035.055.021.087.036.056.026.088.036.059.026.088.038.058.029.088.043.056.029.087.043.058.027.087.044a.665.665,0,0,1,.087.044.614.614,0,0,1,.088.046c.032.015.056.032.088.049a.885.885,0,0,1,.085.049c.035.015.062.038.091.053a.908.908,0,0,1,.088.053c.032.018.056.04.087.059a.481.481,0,0,1,.087.062.7.7,0,0,1,.087.062.828.828,0,0,1,.088.064l.087.073a1.1,1.1,0,0,1,.087.075c.035.027.062.053.091.077s.058.053.088.084.056.058.087.087a1.228,1.228,0,0,1,.087.094.58.58,0,0,1,.087.1c.035.035.062.068.093.1s.056.076.087.114.058.081.087.126.058.087.087.131.058.1.088.147.061.113.087.167a1.839,1.839,0,0,1,.087.192,2.042,2.042,0,0,1,.087.222c.035.1.062.192.088.289a3.523,3.523,0,0,1,.087.441,3.8,3.8,0,0,1,.041.564,4.078,4.078,0,0,1-.041.582,3.8,3.8,0,0,1-.087.454c-.026.1-.053.2-.088.3a1.9,1.9,0,0,1-.087.234c-.026.065-.053.132-.087.2s-.055.117-.087.172-.056.106-.088.155-.055.091-.087.137l-.087.129-.087.119c-.03.041-.061.074-.093.111a1.252,1.252,0,0,1-.087.1c-.029.032-.058.062-.087.1s-.058.058-.087.091-.061.053-.088.084-.059.052-.091.082a1.1,1.1,0,0,1-.087.074c-.03.026-.055.049-.087.071a.856.856,0,0,1-.088.071c-.029.023-.055.046-.087.067s-.055.041-.087.062-.055.04-.087.059-.058.04-.088.058l-.091.055c-.029.015-.056.033-.085.05s-.059.035-.088.047a.862.862,0,0,1-.088.049c-.029.014-.056.032-.087.046l-.087.044a.9.9,0,0,1-.087.043c-.03.017-.061.029-.088.044s-.059.027-.088.041-.058.027-.088.038a.88.88,0,0,0-.087.038.653.653,0,0,0-.087.036c-.032.011-.058.021-.087.032s-.061.021-.09.033a.587.587,0,0,0-.087.03c-.03.011-.061.018-.088.029l-.087.026c-.03.012-.058.021-.087.03s-.058.017-.09.023-.055.017-.087.023a.8.8,0,0,1-.087.021l-.09.026-.087.02-.046.018c-.032,0-.056.014-.087.017a.679.679,0,0,1-.087.018l-.088.017-.087.014-.087.014-.091.012-.087.011-.088.014a.543.543,0,0,0-.087.008c-.032,0-.058,0-.087.009l-.091.008-.088.008-.087,0-.087,0-.088,0c-.029,0-.056,0-.087,0s-.058,0-.087,0l-.087,0h-14.17v18.409h13.413l.09,0,.087,0c.032,0,.059,0,.09,0s.058,0,.087,0l.09,0a.833.833,0,0,1,.087-.006c.032,0,.055-.006.087-.009s.059-.008.088-.008.055,0,.087-.009a.554.554,0,0,1,.087-.008c.032,0,.059,0,.09-.009l.087-.012.087-.014.088-.012.087-.014.09-.012a.578.578,0,0,1,.087-.017l.087-.021.09-.017.087-.02.09-.018.087-.021.087-.024.088-.023a.777.777,0,0,0,.087-.026c.03-.008.055-.012.087-.021s.059-.017.09-.027l.087-.026c.03-.008.058-.018.09-.027l.087-.027.087-.03c.032-.008.061-.023.09-.032a.829.829,0,0,0,.087-.032l.088-.03a.609.609,0,0,1,.087-.035c.029-.012.058-.026.087-.037s.058-.023.087-.035l.088-.038.087-.04c.032-.012.058-.024.087-.038l.088-.043.091-.043c.029-.012.056-.029.087-.043s.058-.032.087-.044.058-.03.087-.044.058-.03.088-.047.056-.03.087-.044a.8.8,0,0,0,.087-.047.484.484,0,0,0,.088-.047.577.577,0,0,0,.091-.047l.07-.061c.029-.015.056-.036.087-.052a.483.483,0,0,0,.087-.055c.03-.015.058-.033.088-.05s.056-.041.087-.058.058-.037.087-.055.058-.041.087-.062.061-.041.091-.059.056-.043.088-.064.056-.041.087-.061l.087-.068c.03-.024.058-.043.088-.068s.059-.044.091-.07l.087-.07c.03-.026.058-.047.087-.073s.058-.049.085-.075.059-.05.087-.078.059-.052.09-.079.058-.055.087-.082.058-.056.088-.084.059-.055.087-.085l.087-.087c.03-.032.058-.058.087-.091a.864.864,0,0,0,.09-.091,1.278,1.278,0,0,0,.087-.1c.032-.033.059-.065.088-.1a1.091,1.091,0,0,0,.087-.1c.032-.035.059-.07.09-.1l.087-.111c.029-.036.058-.075.087-.113s.059-.074.087-.114.061-.079.09-.12.055-.087.087-.126.056-.085.088-.128.055-.09.087-.134.059-.091.087-.138.059-.1.087-.143.056-.1.088-.15.055-.1.087-.157.059-.108.09-.161.056-.117.087-.179.058-.12.087-.182.058-.129.088-.195.056-.141.088-.211.056-.146.087-.225.061-.161.088-.243.059-.182.087-.275.059-.207.087-.31c.032-.12.059-.237.088-.362.034-.149.059-.3.088-.453.038-.226.067-.456.088-.689.023-.263.038-.53.038-.8h.014V197.543h-.125Z" transform="translate(-248.12 -185.331)"/><path class="a" d="M319.956,220.855h5.264a.81.81,0,0,1,.088,0l.087-.006.087-.006c.03,0,.056,0,.088-.009s.059-.009.087-.011.059-.009.087-.015a.184.184,0,0,1,.052-.008l.035-.009c.03-.009.059-.017.09-.023l.087-.026c.03-.009.058-.021.088-.032s.056-.021.087-.033l.087-.04c.032-.017.058-.029.087-.041s.058-.03.088-.047a.354.354,0,0,0,.087-.052.491.491,0,0,0,.087-.053.641.641,0,0,0,.088-.061c.033-.021.061-.046.091-.068s.056-.05.087-.076a.755.755,0,0,0,.087-.084.839.839,0,0,0,.087-.1.965.965,0,0,0,.091-.1l.088-.12c.032-.044.056-.091.087-.137s.058-.109.087-.164c.032-.071.062-.138.088-.208a3.008,3.008,0,0,0,.087-.295,2.666,2.666,0,0,0,.061-.556,2.526,2.526,0,0,0-.061-.556,3.009,3.009,0,0,0-.087-.295c-.026-.073-.056-.14-.088-.208-.029-.053-.055-.111-.087-.161s-.055-.094-.087-.138a.431.431,0,0,1-.067-.128c-.029-.036-.056-.07-.088-.1a.875.875,0,0,0-.087-.1c-.032-.03-.061-.058-.09-.084s-.058-.05-.087-.078-.058-.046-.09-.067-.055-.043-.087-.061-.056-.041-.088-.058-.059-.032-.087-.049-.055-.032-.087-.044-.059-.03-.09-.043l-.087-.04c-.03-.014-.058-.024-.087-.035s-.058-.02-.088-.032l-.087-.026c-.033-.009-.058-.015-.09-.021l-.035-.009c-.015,0-.032-.006-.052-.008l-.087-.014a.624.624,0,0,1-.087-.012c-.03,0-.056,0-.088,0a.523.523,0,0,0-.087-.008c-.03,0-.059,0-.087-.009a.548.548,0,0,1-.088,0H320v.009h-.043Z" transform="translate(-246.571 -175.523)"/><path class="a" d="M320.087,215.824h4.641l.088,0c.029,0,.055,0,.087,0l.087-.006c.03,0,.058-.006.087-.009s.062-.006.088-.008.049-.006.065-.009l.021,0,.087-.017c.03-.006.058-.012.088-.021l.088-.026c.032-.008.058-.018.087-.027s.061-.023.088-.033a.924.924,0,0,0,.087-.036.941.941,0,0,0,.087-.043,1.243,1.243,0,0,0,.176-.1c.03-.017.058-.035.088-.055s.059-.043.087-.064a1.019,1.019,0,0,0,.09-.07c.03-.027.059-.05.087-.079a1.158,1.158,0,0,0,.087-.087.878.878,0,0,0,.087-.1c.032-.036.059-.074.088-.112a1.509,1.509,0,0,0,.087-.132c.032-.05.061-.1.09-.157a1.934,1.934,0,0,0,.087-.2,1.967,1.967,0,0,0,.087-.3,2.6,2.6,0,0,0,.053-.508,2.195,2.195,0,0,0-.053-.508,1.833,1.833,0,0,0-.087-.295c-.03-.07-.053-.135-.087-.2s-.058-.106-.09-.157-.055-.09-.087-.132-.056-.074-.088-.112a1.274,1.274,0,0,0-.087-.1.927.927,0,0,0-.087-.087c-.027-.027-.056-.053-.087-.079a.792.792,0,0,0-.09-.07c-.027-.021-.058-.044-.087-.064s-.058-.04-.088-.058l-.087-.05c-.03-.015-.058-.032-.09-.046a.507.507,0,0,0-.087-.041.646.646,0,0,0-.087-.04l-.088-.032a.726.726,0,0,0-.087-.029l-.088-.024a.612.612,0,0,0-.088-.02.509.509,0,0,0-.087-.02l-.021,0c-.017,0-.036-.006-.065-.008s-.053-.008-.088-.009-.056-.006-.087-.009l-.087-.006c-.032,0-.058,0-.087,0h-4.86v4.4h.131Z" transform="translate(-246.568 -177.907)"/><g class="b" transform="translate(1)"><rect class="c" width="110" height="76.645" rx="15"/><rect class="d" x="1.5" y="1.5" width="107" height="73.645" rx="13.5"/></g></g></g></svg>