<svg xmlns="http://www.w3.org/2000/svg" width="110" height="76.645" viewBox="0 0 110 76.645"><defs><style>.a{fill:#a8d574;}.b,.d{fill:none;}.b{stroke:#a8d574;stroke-width:3px;}.c{stroke:none;}</style></defs><g transform="translate(0)"><path class="a" d="M-537.382,478.412h-54.131a4.226,4.226,0,0,1-4.333-5.443c1.1-4.784,2.226-9.562,3.34-14.343q3.043-13.07,6.086-26.143c.2-.863.4-1.727.6-2.59a7.359,7.359,0,0,1,6.389-5.418c1.016-.069,2.038-.06,3.057-.06q18.857-.007,37.712,0,11.963,0,23.926.008a5.739,5.739,0,0,1,2.919.573,4.183,4.183,0,0,1,2.022,4.638c-1.044,4.612-2.127,9.213-3.195,13.819q-1.972,8.49-3.944,16.982-1.45,6.233-2.906,12.466a7.4,7.4,0,0,1-5.953,5.427,9.156,9.156,0,0,1-1.176.087Q-532.173,478.419-537.382,478.412Zm-4.939-11.8h.617c1.266,0,2.533.011,3.8-.008.405-.007.676.059.593.579.712,0,1.385.007,2.055-.01a.367.367,0,0,0,.284-.188c.14-.494.482-.38.841-.331l.028.54c.554,0,1.093,0,1.633,0a2.3,2.3,0,0,0,2.086-1.167c.338-.552.72-1.076,1.168-1.74.16.658.318,1.157.4,1.668a1.294,1.294,0,0,0,1.163,1.107,5.549,5.549,0,0,0,1.328.023.382.382,0,0,0,.283-.211c.131-.467.227-.942.341-1.444a2.015,2.015,0,0,0-.312-.036c-.5.038-.746-.2-.82-.7-.065-.437-.2-.865-.276-1.3a.394.394,0,0,0-.47-.375,6.659,6.659,0,0,1-.722-.041.879.879,0,0,1,.959-.7c.508.031,1.019.015,1.529.007.986-.015.823.158,1.078-.909.083-.348-.054-.446-.372-.437-.412.011-.823,0-1.235,0-1.122.006-.988.078-.787-.979a.5.5,0,0,1,.608-.472c.608.026,1.218.024,1.826,0,.162-.008.417-.116.461-.238a12.74,12.74,0,0,0,.332-1.356h-.6l-6.268,0c-1.129,0-1.1.008-1.388,1.082-.122.464.034.542.441.53.751-.02,1.5,0,2.318,0-.077.388-.144.705-.2,1.025a.461.461,0,0,1-.55.423c-.542-.018-1.086,0-1.628,0-.951,0-.939,0-1.109.93-.059.325.06.419.354.416.51-.006,1.021-.006,1.531,0,.163,0,.328.042.6.078-.668,1.031-1.246,1.986-1.9,2.887a1.412,1.412,0,0,1-.862.4c-.643.106-.7.02-.634-.61,0-.026-.029-.056-.057-.106l-.555-.093c.01-.1.01-.166.023-.228.63-2.7,1.266-5.4,1.888-8.1.072-.312.243-.366.524-.388.175-.013.439-.122.488-.253a12.363,12.363,0,0,0,.338-1.382c-1.878.16-3.747-.25-5.5.847l.086-.845H-538.2c-.777,0-.772,0-.952.782q-1.043,4.483-2.1,8.965c-.087.362-.069.818-.609.885-.054.008-.116.118-.136.191C-542.1,465.713-542.2,466.109-542.321,466.614ZM-580.6,438.356c-1.146,0-2.224-.01-3.3.016-.095,0-.225.215-.266.352-.108.361-.18.733-.256,1.1-.56,2.68-1.165,5.352-1.661,8.043a2.382,2.382,0,0,0,2,3.037,8.509,8.509,0,0,0,3.223.209c2.587-.294,4.3-1.34,4.981-3.775.8-2.859,1.507-5.745,2.259-8.619.083-.313-.075-.374-.335-.374-.674,0-1.349.024-2.022-.012-.354-.02-.5.1-.573.431q-.4,1.9-.83,3.8c-.353,1.534-.7,3.07-1.1,4.593a2.509,2.509,0,0,1-1.574,1.779c-1.646.636-2.906-.281-2.587-1.994.387-2.079.918-4.131,1.4-6.19C-581.056,439.977-580.825,439.21-580.6,438.356Zm36.373,12.758c.915,0,1.734-.031,2.549.013.449.025.593-.149.676-.552.245-1.19.533-2.368.79-3.555a.617.617,0,0,1,.684-.553c.705,0,1.411-.049,2.117-.091a5.42,5.42,0,0,0,5.225-5.73,1.984,1.984,0,0,0-1.517-2.058,8.086,8.086,0,0,0-2.033-.312c-1.674-.042-3.352-.007-5.027-.02-.358,0-.506.1-.588.477-.572,2.613-1.168,5.221-1.772,7.827C-543.461,448.042-543.834,449.519-544.222,451.114Zm-4.246,4.506-.111-.083a3.044,3.044,0,0,1,.095-.563c.131-.364-.005-.481-.359-.472a7.745,7.745,0,0,1-1.084-.007c-.537-.055-.776.136-.893.686-.346,1.6-.763,3.189-1.142,4.785-.48,2.025-.967,4.051-1.418,6.084-.149.661.171,1.01.866,1.053s1.377.082,2.064.088c1.359.013,1.359,0,1.606-1.34.006-.033.016-.064.023-.095.072-.3-.073-.387-.348-.356-.309.034-.619.082-.929.087-.626.01-.738-.139-.6-.731.251-1.051.514-2.1.753-3.157.075-.333.222-.444.572-.437q1.923.034,3.848,0c1.529-.023,2.11-.418,2.512-1.851.412-1.467.735-2.961,1.073-4.449.023-.1-.154-.344-.237-.344-1.313,0-2.628,0-3.938.08A4.015,4.015,0,0,0-548.469,455.62Zm27.509-8.162a2.4,2.4,0,0,1-.09-.335c-.065-1.013-.142-2.029-.185-3.044-.016-.375-.08-.539-.518-.431-.619.153-1.254.242-1.886.335-.369.054-.448.25-.4.583.253,1.851.513,3.7.733,5.556a2.673,2.673,0,0,1-.075,1.422c-.629,1.224-1.392,2.38-2.079,3.576a1.214,1.214,0,0,1-.995.689.479.479,0,0,0-.348.245c-.127.383-.2.783-.315,1.276.55,0,1.034-.006,1.519,0a2.165,2.165,0,0,0,2.053-1.191q3.1-5.435,6.216-10.865c.305-.534.6-1.076.942-1.7-.857.148-1.609.3-2.365.4a.858.858,0,0,0-.743.535C-519.942,445.456-520.424,446.384-520.96,447.458Zm-7.755-3.153a1.5,1.5,0,0,0-1.867-.486,4.4,4.4,0,0,0-2.7,2.083,6.7,6.7,0,0,0-.807,3.021,2.16,2.16,0,0,0,2,2.378,2.357,2.357,0,0,0,2.193-.643c-.042.571.221.584.549.57.608-.026,1.218-.036,1.826-.01.39.018.547-.13.627-.5.474-2.215.967-4.425,1.452-6.638a3.223,3.223,0,0,0,.028-.364Zm-24.447,6.809h1.41c1.437,0,1.418,0,1.677-1.413.209-1.146.465-2.283.717-3.421a.953.953,0,0,1,1.017-.646c.472.075.562.415.495.808-.167.986-.343,1.972-.537,2.952-.109.557-.261,1.1-.407,1.715.892,0,1.71.011,2.527-.015.109,0,.281-.181.307-.3.376-1.764.755-3.529,1.083-5.3a1.448,1.448,0,0,0-1.669-1.882,9.358,9.358,0,0,0-1.831.5,4.629,4.629,0,0,0-.5.222l.114-.8c-.918.152-1.77.3-2.626.431-.335.051-.353.292-.4.534-.252,1.353-.487,2.709-.759,4.057C-552.712,449.376-552.937,450.2-553.161,451.114Zm-17.2-6.84.083-.674a1.4,1.4,0,0,0-.314-.023c-.745.118-1.488.248-2.233.362a.42.42,0,0,0-.416.447,6.14,6.14,0,0,1-.134.876c-.382,1.8-.765,3.6-1.168,5.389-.082.362,0,.48.368.47.591-.018,1.186-.036,1.777,0,.448.028.585-.158.665-.571.278-1.435.593-2.861.9-4.287a.937.937,0,0,1,1.067-.619c.387.073.554.382.451.888-.281,1.382-.575,2.763-.861,4.144-.026.121-.041.243-.07.428.874,0,1.692.015,2.509-.016.1-.005.248-.237.281-.384.211-.978.4-1.962.59-2.944a27.868,27.868,0,0,0,.485-2.753,1.261,1.261,0,0,0-1.354-1.413,2.823,2.823,0,0,0-.879.07C-569.187,443.83-569.744,444.054-570.363,444.274Zm12.223,7.064a4.24,4.24,0,0,0,4.22-2.73,8.674,8.674,0,0,0,.549-2.034,2.287,2.287,0,0,0-1.94-2.861,8.553,8.553,0,0,0-1.77-.031,3.766,3.766,0,0,0-2.644,1.263,5.663,5.663,0,0,0-1.329,4.632,1.579,1.579,0,0,0,1.109,1.338A17.08,17.08,0,0,0-558.139,451.338Zm3.74,14.158-.712.034c-.361.018-.722.062-1.08.046s-.576-.176-.448-.612a14.973,14.973,0,0,0,.337-1.488c.07-.384.238-.557.66-.53a17.928,17.928,0,0,0,1.873,0,.575.575,0,0,0,.444-.248,10.6,10.6,0,0,0,.305-1.275c-.606,0-1.127,0-1.646,0-1.281,0-1.111.036-.854-1.131a.434.434,0,0,1,.5-.4c.658.013,1.316.016,1.973-.008.14-.007.366-.121.4-.232a8.429,8.429,0,0,0,.224-1.183.636.636,0,0,0-.261-.077c-2.006,0-4.011-.008-6.017.007a.478.478,0,0,0-.369.232c-.131.38-.2.782-.314,1.252h1.514c-.075.374-.157.669-.191.971-.051.454-.3.584-.733.583-1.12,0-.96-.207-1.228,1.022a.92.92,0,0,1-.021.1c-.113.344.052.447.368.439s.642,0,1.016,0c-.036.253-.049.413-.083.568-.168.736-.346,1.469-.515,2.2-.185.8.078,1.28.9,1.35,1.094.093,2.2.07,3.3.073a.421.421,0,0,0,.309-.25C-554.62,466.5-554.531,466.049-554.4,465.5Zm10.007-.018c-.289.038-.479.069-.671.088-1.241.129-1.374,0-1.367-1.239,0-.359.114-.49.48-.5a7.441,7.441,0,0,0,1.514-.147,1.513,1.513,0,0,0,1.021-1.843c-.157-.47-.72-.145-1.093-.217a.507.507,0,0,0-.676.5c-.073.524-.482.557-.9.558-.447,0-.318-.372-.389-.612a2.779,2.779,0,0,1-.054-.344c-.547,0-1.088.02-1.625-.007-.4-.02-.514.147-.493.524.074,1.361.142,2.722.183,4.083a.7.7,0,0,0,.732.757c.869.06,1.739.088,2.61.091a.554.554,0,0,0,.41-.31C-544.57,466.444-544.5,466-544.392,465.478Zm-17.434-20.3c-.947.147-1.787.282-2.626.406-.315.046-.413.23-.475.526-.314,1.469-.653,2.933-.985,4.4-.041.183-.088.366-.144.6.934,0,1.8.016,2.667-.021.119,0,.291-.268.33-.437.225-.938.41-1.888.619-2.832C-562.249,446.962-562.043,446.108-561.826,445.177Zm7.482,9.327a8.113,8.113,0,0,1-1.166-.008,1.63,1.63,0,0,0-2.105,1.252.9.9,0,0,1-.983.666.481.481,0,0,0-.389.188,5.7,5.7,0,0,0-.273,1.046c-.013.077.114.256.186.261a3.89,3.89,0,0,0,2.677-.6,1.62,1.62,0,0,1,.83-.317c.936-.039,1.875,0,2.812-.025.17,0,.446-.086.488-.2a11.864,11.864,0,0,0,.338-1.353h-2.747Zm26.931,1.234c-.73.131-.928-.246-.869-.894.008-.095-.2-.3-.315-.3-.639-.029-1.279-.026-1.917,0-.118,0-.33.16-.328.245a18.182,18.182,0,0,0,.1,1.908.686.686,0,0,0,.363.428,5.752,5.752,0,0,0,2.517.178l.47-1.41A.8.8,0,0,0-527.413,455.738Zm-36.09-10.824.057.134a10.561,10.561,0,0,0,1.571-.705.962.962,0,0,0,.372-.818,1.246,1.246,0,0,0-.719-.615,2.08,2.08,0,0,0-1.7.242c-.565.269-.879.734-.792,1.121C-564.615,444.679-564.177,444.912-563.5,444.914Z" transform="translate(607.626 -412.899)"/><path class="a" d="M-559.583,447.975c1.241,0,1.154-.087.856,1.073-.312,1.216-.013,1.036-1.325,1.047-1.073.008-1.073,0-.83-1.036,0-.015,0-.031.01-.048C-560.556,447.805-560.812,447.994-559.583,447.975Z" transform="translate(630.497 -397.99)"/><path class="a" d="M-560.609,448.187c.161-.705.3-1.364.472-2.015a.422.422,0,0,1,.3-.247c.592-.023,1.185-.012,1.9-.012-.145.564-.266,1.065-.406,1.562a.285.285,0,0,1-.183.151C-559.19,447.813-559.855,447.985-560.609,448.187Z" transform="translate(630.044 -399.3)"/><path class="a" d="M-560.123,446.1c.161-.684.309-1.351.483-2.014a.381.381,0,0,1,.279-.215c.59-.02,1.182-.01,1.869-.01-.122.559-.22,1.052-.347,1.535a.387.387,0,0,1-.242.205c-.611.184-1.228.352-1.844.521A.742.742,0,0,1-560.123,446.1Z" transform="translate(630.353 -400.605)"/><path class="a" d="M-561.47,438.5c.281-1.259.533-2.416.8-3.572.209-.917.215-.919,1.129-.855q.493.035.985.094a1.411,1.411,0,0,1,1.3,1.731,2.97,2.97,0,0,1-2.906,2.6C-560.566,438.506-560.975,438.5-561.47,438.5Z" transform="translate(629.492 -406.842)"/><path class="a" d="M-567.279,445.75c.122-.538.225-1.08.378-1.609.03-.1.247-.214.378-.215,1.2-.016,2.41-.01,3.61-.01.173.756-.039,1.057-.753,1.04a4.809,4.809,0,0,0-3.519.9Z" transform="translate(625.802 -400.568)"/><path class="a" d="M-563.375,445.5c-.039.843-.086.9-.792.911-.96.012-1.92.015-2.88,0-.156,0-.452-.168-.442-.212.053-.283,0-.682.465-.687.663-.007,1.325,0,1.986-.007Z" transform="translate(625.669 -399.557)"/><path class="a" d="M-556.493,440.633c.253-.85.495-1.7.768-2.548a.936.936,0,0,1,.363-.516,1.544,1.544,0,0,1,.932-.258.957.957,0,0,1,.526.685,4.836,4.836,0,0,1-.754,3.153,1.576,1.576,0,0,1-.973.5C-556.094,441.746-556.412,441.288-556.493,440.633Z" transform="translate(632.659 -404.777)"/><path class="a" d="M-570.472,438.157c-.289.922-.57,1.848-.871,2.767a.706.706,0,0,1-.291.389,1.778,1.778,0,0,1-.84.273c-.386-.025-.537-.408-.521-.74a6.415,6.415,0,0,1,.92-3.24.833.833,0,0,1,.976-.414C-570.673,437.33-570.592,437.718-570.472,438.157Z" transform="translate(622.174 -404.87)"/><g class="b" transform="translate(0)"><rect class="c" width="110" height="76.645" rx="15"/><rect class="d" x="1.5" y="1.5" width="107" height="73.645" rx="13.5"/></g></g></svg>