<svg xmlns="http://www.w3.org/2000/svg" width="110" height="76.645" viewBox="0 0 110 76.645"><defs><style>.a{fill:#707070;}.b,.d{fill:none;}.b{stroke:#707070;stroke-width:3px;}.c{stroke:none;}</style></defs><g transform="translate(0)"><g transform="translate(16.858 10.026)"><path class="a" d="M221.213,255.67v-3.9a2.32,2.32,0,0,0-2.461-2.469,2.425,2.425,0,0,0-2.2,1.1,2.3,2.3,0,0,0-2.067-1.1,2.073,2.073,0,0,0-1.83.923v-.767H211.3v6.214h1.374v-3.445a1.458,1.458,0,0,1,1.532-1.651c.9,0,1.36.585,1.36,1.638v3.458h1.374v-3.445a1.47,1.47,0,0,1,1.53-1.651c.929,0,1.374.585,1.374,1.638v3.458Zm20.33-6.214H239.32v-1.883h-1.374v1.883h-1.269v1.236h1.269v2.834c0,1.443.562,2.3,2.171,2.3a3.205,3.205,0,0,0,1.7-.482l-.393-1.156a2.527,2.527,0,0,1-1.2.351c-.68,0-.9-.416-.9-1.04v-2.807h2.224Zm11.6-.156a1.847,1.847,0,0,0-1.649.911v-.755h-1.347v6.214h1.36v-3.485c0-1.027.443-1.6,1.334-1.6a2.244,2.244,0,0,1,.85.156l.418-1.274a2.948,2.948,0,0,0-.967-.169Zm-17.545.651a4.7,4.7,0,0,0-2.551-.651c-1.584,0-2.6.754-2.6,1.989,0,1.014.759,1.638,2.159,1.832l.642.091c.745.1,1.1.3,1.1.651,0,.48-.5.754-1.427.754a3.338,3.338,0,0,1-2.079-.651l-.642,1.053a4.526,4.526,0,0,0,2.707.807c1.806,0,2.852-.845,2.852-2.029,0-1.091-.824-1.663-2.184-1.858l-.642-.091c-.588-.078-1.059-.194-1.059-.609,0-.455.443-.729,1.19-.729a4.059,4.059,0,0,1,1.949.533Zm36.448-.651a1.842,1.842,0,0,0-1.647.911v-.755h-1.349v6.214h1.36v-3.485c0-1.027.445-1.6,1.335-1.6a2.25,2.25,0,0,1,.85.156l.418-1.274a2.95,2.95,0,0,0-.969-.169Zm-17.53,3.263a3.149,3.149,0,0,0,3.336,3.263,3.285,3.285,0,0,0,2.249-.742l-.654-1.091a2.76,2.76,0,0,1-1.635.56,1.992,1.992,0,0,1,0-3.978,2.759,2.759,0,0,1,1.635.56l.654-1.091a3.285,3.285,0,0,0-2.249-.742,3.149,3.149,0,0,0-3.336,3.263Zm12.742,0v-3.107H265.9v.755a2.376,2.376,0,0,0-1.976-.911,3.266,3.266,0,0,0,0,6.526,2.376,2.376,0,0,0,1.976-.911v.755h1.36Zm-5.063,0a1.893,1.893,0,1,1,1.9,1.989,1.87,1.87,0,0,1-1.9-1.989ZM245.782,249.3a3.265,3.265,0,0,0,.092,6.526,3.828,3.828,0,0,0,2.566-.871l-.669-1a2.992,2.992,0,0,1-1.819.649,1.735,1.735,0,0,1-1.87-1.52h4.645c.013-.169.027-.338.027-.52a2.988,2.988,0,0,0-2.971-3.263Zm-.025,1.209a1.548,1.548,0,0,1,1.582,1.507h-3.244a1.606,1.606,0,0,1,1.662-1.507Zm34.133,2.054v-5.6h-1.36v3.25a2.378,2.378,0,0,0-1.976-.911,3.266,3.266,0,0,0,0,6.526,2.378,2.378,0,0,0,1.976-.911v.755h1.36Zm-5.063,0a1.893,1.893,0,1,1,1.9,1.989,1.87,1.87,0,0,1-1.9-1.989Zm-45.947,0v-3.107h-1.36v.755a2.376,2.376,0,0,0-1.976-.911,3.266,3.266,0,0,0,0,6.526,2.376,2.376,0,0,0,1.976-.911v.755h1.36Zm-5.063,0a1.893,1.893,0,1,1,1.9,1.989A1.87,1.87,0,0,1,223.816,252.562Zm58.341,2.206a.642.642,0,0,1,.247.048.667.667,0,0,1,.2.133.651.651,0,0,1,.135.2.585.585,0,0,1,.05.24.578.578,0,0,1-.05.238.65.65,0,0,1-.135.2.7.7,0,0,1-.2.132.613.613,0,0,1-.247.05.635.635,0,0,1-.25-.05.674.674,0,0,1-.2-.132.648.648,0,0,1-.135-.2.575.575,0,0,1-.048-.238.583.583,0,0,1,.048-.24.621.621,0,0,1,.337-.33A.665.665,0,0,1,282.156,254.769Zm0,1.1a.471.471,0,0,0,.188-.036.5.5,0,0,0,.255-.257.468.468,0,0,0,.037-.187.48.48,0,0,0-.292-.444.5.5,0,0,0-.188-.036.516.516,0,0,0-.19.036.476.476,0,0,0-.155.1.469.469,0,0,0-.14.341.469.469,0,0,0,.037.187.484.484,0,0,0,.1.152.479.479,0,0,0,.155.1A.485.485,0,0,0,282.156,255.867Zm.037-.77a.261.261,0,0,1,.172.05.165.165,0,0,1,.06.134.159.159,0,0,1-.047.118.24.24,0,0,1-.137.056l.188.217h-.148l-.175-.215h-.055v.215h-.123V255.1Zm-.142.108v.152h.142a.131.131,0,0,0,.077-.018.063.063,0,0,0,.028-.058.064.064,0,0,0-.028-.058.145.145,0,0,0-.077-.018Zm-.737-20.2v-.752h.305V234.1h-.779v.154h.307V235Zm1.512,0V234.1h-.238l-.275.624-.275-.624H281.8V235h.168v-.684l.257.59h.175l.258-.591V235Zm-39.457,4.522c.183.159.378.311.569.467a23.4,23.4,0,1,1,0-38.975c-.19.156-.383.308-.569.467a25.084,25.084,0,0,0,0,38.041Zm16.643-42.418a23.544,23.544,0,0,0-13.039,3.91c.192.156.385.308.57.469a25.082,25.082,0,0,1,0,38.039c-.185.159-.378.311-.57.467a23.454,23.454,0,1,0,13.039-42.885Zm-14.556,5.01c-.3.239-.6.482-.892.734a23.281,23.281,0,0,0,0,35.308c.29.252.588.5.892.734.3-.239.6-.482.89-.734a23.278,23.278,0,0,0,0-35.308c-.29-.252-.587-.5-.89-.734" transform="translate(-207.348 -197.106)"/></g><g class="b" transform="translate(0)"><rect class="c" width="110" height="76.645" rx="15"/><rect class="d" x="1.5" y="1.5" width="107" height="73.645" rx="13.5"/></g></g></svg>