<svg xmlns="http://www.w3.org/2000/svg" width="469.603" height="420.155" viewBox="0 0 469.603 420.155"><g transform="translate(-10.661 -7.5)"><g transform="translate(10.661 7.5)"><path d="M265.995,325.375l-12.853-25.212H42.049a2.127,2.127,0,0,1-1.977-1.977V92.53h317.38v140.4a46.789,46.789,0,0,1,18.291-3.955,42.89,42.89,0,0,1,13.842,2.472,20.414,20.414,0,0,1,5.438-3.461V36.667A29.22,29.22,0,0,0,365.856,7.5H31.667A29.22,29.22,0,0,0,2.5,36.667V309.061a29.546,29.546,0,0,0,29.167,29.167H232.873a43.378,43.378,0,0,1,30.65-12.853A2.245,2.245,0,0,1,265.995,325.375ZM126.585,37.162a12.359,12.359,0,1,1-12.359,12.359A12.557,12.557,0,0,1,126.585,37.162Zm-38.066,0A12.359,12.359,0,1,1,76.16,49.521,12.557,12.557,0,0,1,88.519,37.162Zm-37.572,0A12.359,12.359,0,1,1,38.588,49.521,12.557,12.557,0,0,1,50.947,37.162Z" transform="translate(-2.5 -7.5)"/><path d="M47.691,157.679H59.556A4.431,4.431,0,0,0,64,153.23v-9.887c12.853-2.966,22.246-13.348,23.729-25.707.989-10.876-3.461-20.763-12.853-27.684-4.944-3.461-11.37-4.944-17.3-4.944h-7.91a9.76,9.76,0,0,1-6.921-2.966,9.252,9.252,0,0,1-2.472-6.921c.494-4.449,4.944-7.91,9.887-7.91H60.544a5.792,5.792,0,0,1,5.438,4.449,4.748,4.748,0,0,0,4.449,3.461H81.8a4.488,4.488,0,0,0,3.461-1.483,3.057,3.057,0,0,0,.989-3.461C85.263,58.312,75.87,48.92,64,46.942V37.549A4.431,4.431,0,0,0,59.556,33.1H47.691a4.431,4.431,0,0,0-4.449,4.449v9.887A29.826,29.826,0,0,0,19.512,79.57c1.483,14.831,14.831,26.7,30.65,26.7h7.415a9.76,9.76,0,0,1,6.921,2.966,9.252,9.252,0,0,1,2.472,6.921c-.494,4.449-4.944,7.91-9.887,7.91H47.2a5.792,5.792,0,0,1-5.438-4.449,4.748,4.748,0,0,0-4.449-3.461H25.939a4.488,4.488,0,0,0-3.461,1.483,3.057,3.057,0,0,0-.989,3.461c.989,11.865,10.382,21.258,22.246,23.235v9.393C43.242,155.7,45.219,157.679,47.691,157.679Z" transform="translate(64.035 93.457)"/><path d="M275.618,151.776l-27.684-52.9C242.5,88.5,229.148,84.048,218.767,89.486a21.006,21.006,0,0,0-11.37,17.3H206.9c-5.438-10.382-18.786-14.831-29.167-9.393a21.005,21.005,0,0,0-11.37,17.3V114.2c-5.438-10.382-18.786-14.831-29.167-9.393a21.005,21.005,0,0,0-11.37,17.3L91.221,58.341c-2.472-4.944-7.415-8.9-12.853-10.876a23.2,23.2,0,0,0-16.314,1.483h0c-10.382,5.438-14.831,18.786-9.393,29.167l61.8,119.141a3.045,3.045,0,0,1-.494,3.461c-.494.989-1.977.989-2.966.989l-29.662-9.393a21.926,21.926,0,0,0-27.19,28.179A21.173,21.173,0,0,0,66.5,233.346l79.1,33.617A80.853,80.853,0,0,0,214.812,264l30.156-15.82c16.808-8.9,29.662-23.729,35.1-42.021C286,188.359,284.023,169.079,275.618,151.776Z" transform="translate(186.116 146.819)"/><path d="M87.191,67.077c19.28-9.887,43.5-2.472,53.391,16.808,2.966,5.932,10.382,8.4,16.808,5.438,5.932-2.966,8.4-10.382,5.438-16.808-16.314-31.639-55.369-43.5-86.513-27.19-31.639,16.314-43.5,55.369-27.19,86.513,1.977,4.449,6.427,6.427,10.876,6.427a13.163,13.163,0,0,0,5.932-1.483c5.932-2.966,8.4-10.382,5.438-16.808C60,101.188,67.911,76.964,87.191,67.077Z" transform="translate(152.575 112.871)"/></g></g></svg>