<svg xmlns="http://www.w3.org/2000/svg" xmlns:xlink="http://www.w3.org/1999/xlink" width="110" height="76.645" viewBox="0 0 110 76.645"><defs><style>.a{fill:#707070;}.b{clip-path:url(#a);}.c,.e{fill:none;}.c{stroke:#707070;stroke-width:3px;}.d{stroke:none;}</style><clipPath id="a"><path class="a" d="M172.888,216.236c-.049,4.264,3.48,6.645,6.139,8.06,2.731,1.452,3.649,2.382,3.639,3.68-.021,1.988-2.18,2.864-4.2,2.9a13.69,13.69,0,0,1-7.2-1.871l-1.269,6.488a19.557,19.557,0,0,0,7.8,1.572c7.365,0,12.186-3.972,12.21-10.13.03-7.814-9.9-8.247-9.828-11.741.023-1.059.949-2.189,2.977-2.476a12.22,12.22,0,0,1,6.916,1.323l1.233-6.277a17.422,17.422,0,0,0-6.563-1.315c-6.934,0-11.81,4.025-11.85,9.787m30.259-9.246a3.209,3.209,0,0,0-2.985,2.171L189.64,236.6H197l1.464-4.421h9l.849,4.421H214.8l-5.662-29.613h-5.989m1.029,8,2.124,11.12h-5.817l3.693-11.12m-40.214-8-5.8,29.613h7.016l5.8-29.613h-7.012m-10.376,0-7.3,20.155-2.954-17.138a3.364,3.364,0,0,0-3.234-3.017H128.162l-.166.859a27.554,27.554,0,0,1,6.919,2.519c1.033.612,1.328,1.148,1.667,2.6l5.593,23.633h7.412l11.366-29.613h-7.366" transform="translate(-127.996 -206.449)"/></clipPath></defs><g transform="translate(10.559 24.059)"><g transform="translate(0 0)"><path class="a" d="M172.888,216.236c-.049,4.264,3.48,6.645,6.139,8.06,2.731,1.452,3.649,2.382,3.639,3.68-.021,1.988-2.18,2.864-4.2,2.9a13.69,13.69,0,0,1-7.2-1.871l-1.269,6.488a19.557,19.557,0,0,0,7.8,1.572c7.365,0,12.186-3.972,12.21-10.13.03-7.814-9.9-8.247-9.828-11.741.023-1.059.949-2.189,2.977-2.476a12.22,12.22,0,0,1,6.916,1.323l1.233-6.277a17.422,17.422,0,0,0-6.563-1.315c-6.934,0-11.81,4.025-11.85,9.787m30.259-9.246a3.209,3.209,0,0,0-2.985,2.171L189.64,236.6H197l1.464-4.421h9l.849,4.421H214.8l-5.662-29.613h-5.989m1.029,8,2.124,11.12h-5.817l3.693-11.12m-40.214-8-5.8,29.613h7.016l5.8-29.613h-7.012m-10.376,0-7.3,20.155-2.954-17.138a3.364,3.364,0,0,0-3.234-3.017H128.162l-.166.859a27.554,27.554,0,0,1,6.919,2.519c1.033.612,1.328,1.148,1.667,2.6l5.593,23.633h7.412l11.366-29.613h-7.366" transform="translate(-127.996 -206.449)"/><g class="b"><g transform="translate(-9.091 -30.746)"><path class="a" d="M122.45,222.213l85.527-34.4,19.457,57.706-85.525,34.4" transform="translate(-122.45 -187.811)"/></g></g></g></g><g class="c" transform="translate(0 0)"><rect class="d" width="110" height="76.645" rx="15"/><rect class="e" x="1.5" y="1.5" width="107" height="73.645" rx="13.5"/></g></svg>