<svg xmlns="http://www.w3.org/2000/svg" width="24" height="19.2" viewBox="0 0 24 19.2"><defs><style>.a{fill:#3e68b7;}</style></defs><path class="a" d="M21.48,105.4H13.32a.623.623,0,0,1-.48-.24l-1.2-1.68a2.566,2.566,0,0,0-2.16-1.08H2.52A2.461,2.461,0,0,0,0,104.92v14.16a2.461,2.461,0,0,0,2.52,2.52H21.48A2.461,2.461,0,0,0,24,119.08V107.92A2.535,2.535,0,0,0,21.48,105.4Zm1.32,13.68a1.332,1.332,0,0,1-1.32,1.32H2.52a1.332,1.332,0,0,1-1.32-1.32V104.92a1.332,1.332,0,0,1,1.32-1.32H9.48a1.26,1.26,0,0,1,1.08.6l1.2,1.68a1.711,1.711,0,0,0,1.44.72h8.16a1.362,1.362,0,0,1,1.44,1.32Z" transform="translate(0 -102.4)"/></svg>