<svg xmlns="http://www.w3.org/2000/svg" width="24" height="20.727" viewBox="0 0 24 20.727"><defs><style>.a{fill:#4d4d4d;}</style></defs><path class="a" d="M22.7,6.251V4.606c0-1.426-1.08-3.071-2.594-3.071H12.54L12.216.987A1.78,1.78,0,0,0,10.595,0H2.486A2.532,2.532,0,0,0,0,2.522V18.205a2.464,2.464,0,0,0,2.487,2.522H21.513A2.533,2.533,0,0,0,24,18.205V8.553A2.984,2.984,0,0,0,22.7,6.251Zm-2.594-3.18c.541,0,1.081.768,1.081,1.535V5.7H14.594L13.3,3.18h6.811V3.071Zm2.378,15.134a.976.976,0,0,1-.972.987H2.486a.976.976,0,0,1-.973-.987V2.522a1.151,1.151,0,0,1,.973-.987h8.109a.234.234,0,0,1,.216.219l2.7,5.155a.891.891,0,0,0,.649.439h6.919a1.623,1.623,0,0,1,1.3,1.317v9.541h.108Z"/></svg>