<svg xmlns="http://www.w3.org/2000/svg" width="22.155" height="24" viewBox="0 0 22.155 24"><defs><style>.a{fill:#247146;}</style></defs><path class="a" d="M46.741,0a3.691,3.691,0,0,0-3.69,3.694v6.461H40.28a.925.925,0,0,0-.923.923v5.539a.925.925,0,0,0,.923.922h2.771v2.768A3.691,3.691,0,0,0,46.741,24H57.819a3.694,3.694,0,0,0,3.694-3.694V7.384c0-.978-.914-1.92-2.52-3.5L58.31,3.2l-.683-.682C56.049.914,55.108,0,54.129,0H46.741Zm0,1.845h6.731c.665.166.656.988.656,1.8V6.461a.925.925,0,0,0,.923.922h2.767c.923,0,1.849,0,1.849.923v12a1.856,1.856,0,0,1-1.849,1.849H46.741A1.853,1.853,0,0,1,44.9,20.306V17.539h9.232a.925.925,0,0,0,.923-.922V11.078a.925.925,0,0,0-.923-.923H44.9V3.694A1.853,1.853,0,0,1,46.741,1.845ZM48.594,11.7a2.483,2.483,0,0,1,1.08.225l-.18.427a2.285,2.285,0,0,0-.9-.2.8.8,0,0,0-.54.157.539.539,0,0,0-.18.428.71.71,0,0,0,.135.472,3.883,3.883,0,0,0,.743.405,1.726,1.726,0,0,1,.787.518.962.962,0,0,1,.2.63,1.052,1.052,0,0,1-.36.832,1.525,1.525,0,0,1-1.035.315,2.466,2.466,0,0,1-1.035-.18v-.495a2.689,2.689,0,0,0,1.035.225A1.07,1.07,0,0,0,49,15.3a.562.562,0,0,0,.225-.495.659.659,0,0,0-.157-.45,4,4,0,0,0-.833-.428,1.79,1.79,0,0,1-.675-.495,1.132,1.132,0,0,1-.2-.7.926.926,0,0,1,.315-.743,1.361,1.361,0,0,1,.922-.292Zm-7.47.045h.563l.922,1.575.945-1.575h.54L42.9,13.7l1.282,2.16H43.6l-1.012-1.777-1.013,1.777h-.54l1.283-2.16Zm3.623,0h.517v3.645h1.62v.472H44.746V11.741Zm5.355,0h.562l.923,1.575.945-1.575h.54L51.879,13.7l1.283,2.16h-.585l-1.013-1.777-1.012,1.777h-.54l1.282-2.16Z" transform="translate(-39.357)"/></svg>