<svg xmlns="http://www.w3.org/2000/svg" width="11.752" height="9.195" viewBox="0 0 11.752 9.195"><defs><style>.a,.c{fill:#3e68b7;}.b,.c{stroke:none;}</style></defs><g class="a" transform="translate(-67.6 -167.608)"><path class="b" d="M 76.46932983398438 176.7029266357422 L 76.46304321289062 176.7029266357422 L 70.48855590820312 176.7029266357422 C 69.73848724365234 176.7029266357422 69.03643035888672 176.3990631103516 68.51169586181641 175.8473205566406 C 67.98826599121094 175.2969512939453 67.69999694824219 174.5613250732422 67.69999694824219 173.7759552001953 C 67.69999694824219 172.5574951171875 68.43779754638672 171.4263916015625 69.50137329101562 171.0025329589844 C 69.77677154541016 169.1200408935547 71.34684753417969 167.7079925537109 73.17704010009766 167.7079925537109 C 74.71497344970703 167.7079925537109 76.13726806640625 168.7422332763672 76.657470703125 170.2305297851562 C 78.14075469970703 170.4588470458984 79.25160217285156 171.8362274169922 79.25160217285156 173.4618682861328 C 79.25160217285156 175.109375 78.05815887451172 176.5023803710938 76.47556304931641 176.7021331787109 L 76.46932983398438 176.7029266357422 Z M 73.17706298828125 168.7792816162109 C 71.70508575439453 168.7792816162109 70.50756072998047 170.0344543457031 70.50756072998047 171.5772705078125 C 70.50756072998047 171.6359100341797 70.51032257080078 171.6956024169922 70.5159912109375 171.7597503662109 L 70.52062225341797 171.8119659423828 L 70.52967834472656 171.9141540527344 L 70.42729949951172 171.9205932617188 L 70.37494659423828 171.9239044189453 C 69.42871856689453 171.9834289550781 68.71517181396484 172.7796325683594 68.71517181396484 173.7759552001953 C 68.71517181396484 174.8165435791016 69.494140625 175.6316528320312 70.48857879638672 175.6316528320312 L 76.49373626708984 175.6316528320312 L 76.52332305908203 175.6249542236328 C 76.99674987792969 175.5182647705078 77.42830657958984 175.2498474121094 77.73866271972656 174.8690948486328 C 78.06427764892578 174.4696350097656 78.23638916015625 173.9830169677734 78.23638916015625 173.4618682861328 C 78.23638916015625 172.8708648681641 78.02538299560547 172.3235015869141 77.64224243164062 171.9206085205078 C 77.25679779052734 171.5153350830078 76.73192596435547 171.2921447753906 76.164306640625 171.2921447753906 C 76.10446166992188 171.2921447753906 76.04428863525391 171.2955169677734 75.98548126220703 171.3021850585938 L 75.9359130859375 171.3077697753906 L 75.83908081054688 171.3186950683594 L 75.82565307617188 171.2221832275391 L 75.81877899169922 171.1728057861328 C 75.73536682128906 170.5725708007812 75.47341918945312 170.0276184082031 75.06124114990234 169.5968322753906 C 74.55680847167969 169.0696258544922 73.88765716552734 168.7792816162109 73.17706298828125 168.7792816162109 Z"/><path class="c" d="M 73.17704010009766 167.8079986572266 C 71.32496643066406 167.8079986572266 69.83136749267578 169.2528991699219 69.59232330322266 171.0746765136719 C 68.57672119140625 171.4515838623047 67.80000305175781 172.5195617675781 67.80000305175781 173.7759552001953 C 67.80000305175781 175.3465270996094 68.99489593505859 176.6029205322266 70.48855590820312 176.6029205322266 L 76.46304321289062 176.6029205322266 C 77.95665740966797 176.4143981933594 79.15159606933594 175.0951995849609 79.15159606933594 173.4618682861328 C 79.15159606933594 171.8285217285156 78.01640319824219 170.5093078613281 76.58257293701172 170.3208465576172 C 76.10456085205078 168.8759765625 74.73040771484375 167.8079986572266 73.17704010009766 167.8079986572266 M 75.92469787597656 171.2084045410156 L 75.97422790527344 171.2028045654297 C 76.03684997558594 171.1957244873047 76.10082244873047 171.192138671875 76.164306640625 171.192138671875 C 76.75958251953125 171.192138671875 77.31019592285156 171.4263763427734 77.71469879150391 171.8516998291016 C 78.11559295654297 172.2732543945312 78.33638763427734 172.8450927734375 78.33638763427734 173.4618682861328 C 78.33638763427734 174.0063018798828 78.15650177001953 174.5147705078125 77.81616973876953 174.9322814941406 C 77.49176025390625 175.3302917480469 77.04046630859375 175.6109313964844 76.54544067382812 175.7224731445312 L 76.50492095947266 175.7316589355469 L 70.48857879638672 175.7316589355469 C 69.43807220458984 175.7316589355469 68.61517333984375 174.8726043701172 68.61517333984375 173.7759552001953 C 68.61517333984375 172.7261199951172 69.36900329589844 171.8869934082031 70.36865997314453 171.8240966796875 L 70.42101287841797 171.82080078125 L 70.4163818359375 171.7685546875 C 70.41044616699219 171.7015075683594 70.40756225585938 171.6389465332031 70.40756225585938 171.5772705078125 C 70.40756225585938 169.9793243408203 71.64994812011719 168.6792755126953 73.17706298828125 168.6792755126953 C 73.91519927978516 168.6792755126953 74.61001586914062 168.9805908203125 75.13349151611328 169.5276947021484 C 75.56028747558594 169.9737548828125 75.83151245117188 170.5378570556641 75.91783142089844 171.1590270996094 L 75.92469787597656 171.2084045410156 M 73.17704010009766 167.6080017089844 C 74.73761749267578 167.6080017089844 76.18196105957031 168.6436462402344 76.73176574707031 170.1414031982422 C 78.23385620117188 170.4041442871094 79.35160064697266 171.8085632324219 79.35160064697266 173.4618682861328 C 79.35160064697266 175.1596374511719 78.12055969238281 176.5953063964844 76.48808288574219 176.8013458251953 L 76.47560882568359 176.8029174804688 L 76.46304321289062 176.8029174804688 L 70.48855590820312 176.8029174804688 C 69.71083068847656 176.8029174804688 68.9830322265625 176.4880218505859 68.43923187255859 175.9162292480469 C 67.89804840087891 175.3471832275391 67.59999847412109 174.5870971679688 67.59999847412109 173.7759552001953 C 67.59999847412109 172.5377349853516 68.33900451660156 171.3862915039062 69.41109466552734 170.9315490722656 C 69.71661376953125 169.0286407470703 71.31577301025391 167.6080017089844 73.17704010009766 167.6080017089844 Z M 75.75347137451172 171.4290313720703 L 75.72660827636719 171.2359771728516 L 75.71974182128906 171.1865997314453 C 75.63923645019531 170.6072845458984 75.38655090332031 170.0814666748047 74.98898315429688 169.6659545898438 C 74.50360107421875 169.1586608886719 73.860107421875 168.8792724609375 73.17706298828125 168.8792724609375 C 71.76023101806641 168.8792724609375 70.60755920410156 170.0895843505859 70.60755920410156 171.5772705078125 C 70.60755920410156 171.6329345703125 70.61019134521484 171.6897430419922 70.6156005859375 171.7509460449219 L 70.62023162841797 171.8031463623047 L 70.63833618164062 172.0074920654297 L 70.43358612060547 172.0204010009766 L 70.38124084472656 172.0236968994141 C 69.48841857910156 172.0798645019531 68.81517028808594 172.8331756591797 68.81517028808594 173.7759552001953 C 68.81517028808594 174.7604522705078 69.55021667480469 175.5316619873047 70.48857879638672 175.5316619873047 L 76.48250579833984 175.5316619873047 L 76.50119781494141 175.5274200439453 C 76.95302581787109 175.4256134033203 77.3648681640625 175.1694030761719 77.66114044189453 174.8059234619141 C 77.9720458984375 174.4244995117188 78.13639068603516 173.9597320556641 78.13639068603516 173.4618682861328 C 78.13639068603516 172.8966369628906 77.93515777587891 172.3737487792969 77.56977081298828 171.9895324707031 C 77.20339965820312 171.6042938232422 76.70426177978516 171.3921356201172 76.164306640625 171.3921356201172 C 76.10822296142578 171.3921356201172 76.05182647705078 171.3952941894531 75.99669647216797 171.4015350341797 L 75.94716644287109 171.4071350097656 L 75.75347137451172 171.4290313720703 Z"/></g></svg>