<svg xmlns="http://www.w3.org/2000/svg" width="24" height="23.015" viewBox="0 0 24 23.015"><defs><style>.a{fill:#7a7a7a;}</style></defs><path class="a" d="M83.153,88.85a1.929,1.929,0,0,0-1.041-3.2l-5.589-1.1a.574.574,0,0,1-.389-.283l-2.778-4.976a1.93,1.93,0,0,0-3.37,0l-2.778,4.975a.581.581,0,0,1-.389.283l-5.591,1.1a1.93,1.93,0,0,0-1.041,3.206l3.873,4.18a.572.572,0,0,1,.148.456l-.677,5.658a1.93,1.93,0,0,0,2.726,1.981l5.172-2.392a.574.574,0,0,1,.48,0l5.172,2.392a1.93,1.93,0,0,0,2.726-1.981l-.677-5.657a.566.566,0,0,1,.149-.457Zm-4.868,3.257a1.926,1.926,0,0,0-.5,1.542l.677,5.658a.572.572,0,0,1-.807.587L72.481,97.5a1.923,1.923,0,0,0-1.621,0l-5.172,2.392a.572.572,0,0,1-.807-.587l.677-5.66a1.929,1.929,0,0,0-.5-1.539l-3.872-4.179a.572.572,0,0,1,.308-.95l5.589-1.1a1.929,1.929,0,0,0,1.308-.954l2.778-4.976a.565.565,0,0,1,.5-.292.56.56,0,0,1,.5.293l2.778,4.976a1.922,1.922,0,0,0,1.311.952l5.589,1.106a.571.571,0,0,1,.308.949Z" transform="translate(-59.669 -78.293)"/></svg>