<svg xmlns="http://www.w3.org/2000/svg" width="209" height="214.87" viewBox="0 0 209 214.87"><defs><style>.a{fill:#707070;fill-rule:evenodd;}</style></defs><g transform="translate(-4.309)"><g transform="translate(4.309)"><path class="a" d="M23.78,48.248H189.44V32.817H151.527a4.462,4.462,0,0,1-4.024-2.939,51.12,51.12,0,0,0-16.44-21.571,40.145,40.145,0,0,0-48.905,0A51.119,51.119,0,0,0,65.718,29.878a4.463,4.463,0,0,1-4.024,2.939H23.78Zm185.39,49.708H148.352l-11.47-42.731h52.855ZM70.478,124.263h72.044v-19.7H70.478Zm59.569-69.038,11.47,42.731H71.482l11.47-42.731Zm-107.207,0H76.118L64.648,97.956H3.788ZM2,104.565v19.7H63.878v-19.7Zm38.6,110.3h36.52v-64.4H40.6Zm108.519-110.3v19.7H211v-19.7ZM181.7,192.874a3.3,3.3,0,0,1-3.3,3.3H106.5a3.3,3.3,0,0,1-3.3-3.3V147.168a3.3,3.3,0,0,1,3.3-3.3h71.9a3.3,3.3,0,0,1,3.3,3.3Zm-168.61-62v84H34v-67.7a3.3,3.3,0,0,1,3.3-3.3h43.12a3.3,3.3,0,0,1,3.3,3.3v67.7H200.051v-84Z" transform="translate(-2)"/></g></g></svg>