<svg xmlns="http://www.w3.org/2000/svg" width="26.662" height="32" viewBox="0 0 26.662 32"><defs><style>.a{fill:#7a7a7a;}</style></defs><path class="a" d="M164.316,86.078a7.943,7.943,0,0,1-3.2-6.4V74.342a9.792,9.792,0,0,0-7.111-9.408V63.676a2.666,2.666,0,1,0-5.333,0v1.259a9.794,9.794,0,0,0-7.111,9.408v5.333a7.943,7.943,0,0,1-3.2,6.4.888.888,0,0,0,.533,1.6h8.088a4.539,4.539,0,0,0-.09.889,4.444,4.444,0,1,0,8.8-.889h8.088a.889.889,0,0,0,.533-1.6h0Zm-13.865-22.4a.889.889,0,0,1,1.778,0v.93c-.293-.027-.589-.041-.889-.041s-.6.014-.889.041v-.93Zm3.555,24.887a2.666,2.666,0,1,1-5.18-.889h5.028A2.667,2.667,0,0,1,154.005,88.564ZM141.1,85.9a9.872,9.872,0,0,0,1.171-1.779,9.666,9.666,0,0,0,1.065-4.442V74.342a8,8,0,0,1,16,0v5.333a9.742,9.742,0,0,0,2.236,6.222H141.1Z" transform="translate(-138.007 -61.01)"/></svg>