<svg xmlns="http://www.w3.org/2000/svg" width="22.155" height="24" viewBox="0 0 22.155 24"><defs><style>.a{fill:#307ed0;}</style></defs><path class="a" d="M46.741,0a3.691,3.691,0,0,0-3.69,3.694v6.461H40.28a.925.925,0,0,0-.923.923v5.539a.925.925,0,0,0,.923.922h2.771v2.768A3.691,3.691,0,0,0,46.741,24H57.819a3.694,3.694,0,0,0,3.694-3.694V7.384c0-.978-.914-1.92-2.52-3.5L58.31,3.2l-.683-.682C56.049.914,55.108,0,54.129,0H46.741Zm0,1.845h6.731c.665.166.656.988.656,1.8V6.461a.925.925,0,0,0,.923.922h2.767c.923,0,1.849,0,1.849.923v12a1.856,1.856,0,0,1-1.849,1.849H46.741A1.853,1.853,0,0,1,44.9,20.306V17.539h9.232a.925.925,0,0,0,.923-.922V11.078a.925.925,0,0,0-.923-.923H44.9V3.694A1.853,1.853,0,0,1,46.741,1.845Zm-1.073,9.829a1.587,1.587,0,0,1,1.283.563,2.218,2.218,0,0,1,.495,1.552,2.254,2.254,0,0,1-.495,1.575,1.617,1.617,0,0,1-1.283.54,1.678,1.678,0,0,1-1.305-.517,2.363,2.363,0,0,1-.472-1.6,2.325,2.325,0,0,1,.472-1.575,1.643,1.643,0,0,1,1.305-.54Zm4.365.023a2.392,2.392,0,0,1,1.08.225l-.225.45a1.822,1.822,0,0,0-.855-.225,1.215,1.215,0,0,0-.967.45,1.835,1.835,0,0,0-.36,1.215,1.961,1.961,0,0,0,.337,1.237,1.215,1.215,0,0,0,.99.405,3.577,3.577,0,0,0,.923-.157v.45a2.815,2.815,0,0,1-1.013.157,1.678,1.678,0,0,1-1.305-.517,2.363,2.363,0,0,1-.472-1.6,2.183,2.183,0,0,1,.5-1.53,1.776,1.776,0,0,1,1.372-.562Zm-9.877.045H41.3a1.769,1.769,0,0,1,1.373.54,2.01,2.01,0,0,1,.517,1.485,2.1,2.1,0,0,1-.54,1.552,1.93,1.93,0,0,1-1.462.54H40.156Zm11.2,0h.562l.923,1.575.945-1.575h.54L53.139,13.7l1.283,2.16h-.585l-1.013-1.777-1.012,1.777h-.54l1.282-2.16-1.192-1.957Zm-5.693.405a1.074,1.074,0,0,0-.922.427,1.96,1.96,0,0,0-.315,1.215,2.11,2.11,0,0,0,.315,1.26,1.253,1.253,0,0,0,1.845,0,2.11,2.11,0,0,0,.315-1.26,1.96,1.96,0,0,0-.315-1.215A1.074,1.074,0,0,0,45.669,12.146Zm-5,.045v3.217h.45A1.431,1.431,0,0,0,42.249,15a1.711,1.711,0,0,0,.383-1.215,1.692,1.692,0,0,0-.36-1.192,1.271,1.271,0,0,0-1.035-.405h-.563Z" transform="translate(-39.357)"/></svg>