<svg xmlns="http://www.w3.org/2000/svg" width="22.155" height="24" viewBox="0 0 22.155 24"><defs><style>.a{fill:#e39857;}</style></defs><path class="a" d="M46.741,0a3.691,3.691,0,0,0-3.69,3.694v6.461H40.28a.925.925,0,0,0-.923.923v5.539a.925.925,0,0,0,.923.922h2.771v2.768A3.691,3.691,0,0,0,46.741,24H57.819a3.694,3.694,0,0,0,3.694-3.694V7.384c0-.978-.914-1.92-2.52-3.5L58.31,3.2l-.683-.682C56.049.914,55.108,0,54.129,0H46.741Zm0,1.845h6.731c.665.166.656.988.656,1.8V6.461a.925.925,0,0,0,.923.922h2.767c.923,0,1.849,0,1.849.923v12a1.856,1.856,0,0,1-1.849,1.849H46.741A1.853,1.853,0,0,1,44.9,20.306V17.539h9.232a.925.925,0,0,0,.923-.922V11.078a.925.925,0,0,0-.923-.923H44.9V3.694A1.853,1.853,0,0,1,46.741,1.845ZM50.2,11.7a2.69,2.69,0,0,1,1.125.225l-.2.472a2.155,2.155,0,0,0-.968-.247,1.319,1.319,0,0,0-1.035.427,1.8,1.8,0,0,0-.382,1.238,1.961,1.961,0,0,0,.337,1.237,1.37,1.37,0,0,0,1.08.405,3.15,3.15,0,0,0,.72-.09V14.149h-.832v-.472h1.35V15.7a4.464,4.464,0,0,1-1.373.2,1.713,1.713,0,0,1-1.327-.54,2.254,2.254,0,0,1-.495-1.575,2.123,2.123,0,0,1,.517-1.53A1.961,1.961,0,0,1,50.2,11.7Zm-6.727.045h.517v2.966a1.159,1.159,0,0,1-.292.855,1.08,1.08,0,0,1-.833.315,1.217,1.217,0,0,1-.427-.068v-.45a2.289,2.289,0,0,0,.45.045.533.533,0,0,0,.427-.157.642.642,0,0,0,.158-.473V11.741Zm1.6,0h1.013a1.6,1.6,0,0,1,1.08.315,1.091,1.091,0,0,1,.36.9,1.265,1.265,0,0,1-.383.967,1.653,1.653,0,0,1-1.125.338h-.427v1.6h-.518V11.741Zm.518.45v1.62h.36a1.183,1.183,0,0,0,.787-.2.767.767,0,0,0,.248-.63.712.712,0,0,0-.248-.585,1.019,1.019,0,0,0-.7-.2h-.45Z" transform="translate(-39.357)"/></svg>