<svg xmlns="http://www.w3.org/2000/svg" width="22.155" height="24" viewBox="0 0 22.155 24"><defs><style>.a{fill:#dd0a0a;}</style></defs><path class="a" d="M46.741,0a3.691,3.691,0,0,0-3.69,3.694v6.461H40.28a.925.925,0,0,0-.923.923v5.539a.925.925,0,0,0,.923.922h2.771v2.768A3.691,3.691,0,0,0,46.741,24H57.819a3.694,3.694,0,0,0,3.694-3.694V7.384c0-.978-.914-1.92-2.52-3.5L58.31,3.2l-.683-.682C56.049.914,55.108,0,54.129,0H46.741Zm0,1.845h6.731c.665.166.656.988.656,1.8V6.461a.925.925,0,0,0,.923.922h2.767c.923,0,1.849,0,1.849.923v12a1.856,1.856,0,0,1-1.849,1.849H46.741A1.853,1.853,0,0,1,44.9,20.306V17.539h9.232a.925.925,0,0,0,.923-.922V11.078a.925.925,0,0,0-.923-.923H44.9V3.694A1.853,1.853,0,0,1,46.741,1.845Zm-4.425,9.9h1.012a1.6,1.6,0,0,1,1.08.315,1.091,1.091,0,0,1,.36.9,1.265,1.265,0,0,1-.382.967,1.653,1.653,0,0,1-1.125.338h-.428v1.6h-.517Zm3.33,0h1.147a1.769,1.769,0,0,1,1.373.54,2.01,2.01,0,0,1,.517,1.485,2.1,2.1,0,0,1-.54,1.552,1.93,1.93,0,0,1-1.462.54H45.646Zm3.937,0h2.138v.472H50.1v1.44h1.507v.473H50.1v1.732h-.518V11.741Zm-6.75.45v1.62h.36a1.183,1.183,0,0,0,.788-.2.767.767,0,0,0,.247-.63.712.712,0,0,0-.247-.585,1.02,1.02,0,0,0-.7-.2h-.45Zm3.33,0v3.217h.45A1.431,1.431,0,0,0,47.739,15a1.711,1.711,0,0,0,.383-1.215,1.692,1.692,0,0,0-.36-1.192,1.271,1.271,0,0,0-1.035-.405h-.563Z" transform="translate(-39.357)"/></svg>