<svg xmlns="http://www.w3.org/2000/svg" width="32" height="30.263" viewBox="0 0 32 30.263"><defs><style>.a{fill:#7a7a7a;}</style></defs><path class="a" d="M16,19.5a4.37,4.37,0,1,1,4.371-4.373A4.376,4.376,0,0,1,16,19.5M16,9.244a5.884,5.884,0,1,0,5.885,5.883A5.891,5.891,0,0,0,16,9.244m14.362,8a1.83,1.83,0,0,1-1.253,1.238l-.507.123a4.824,4.824,0,0,0-2.784,2.234,4.917,4.917,0,0,0-.482,3.675l.1.333a1.8,1.8,0,0,1-.507,1.8,13.286,13.286,0,0,1-1.685,1.1,13.687,13.687,0,0,1-1.8.925,1.285,1.285,0,0,1-.464.075,1.88,1.88,0,0,1-1.3-.514l-.357-.378a4.718,4.718,0,0,0-3.27-1.262,5.036,5.036,0,0,0-3.493,1.386l-.235.258a1.922,1.922,0,0,1-1.77.437,12.976,12.976,0,0,1-1.789-.923A15.144,15.144,0,0,1,7.1,26.674a1.865,1.865,0,0,1-.538-1.818l.163-.555a4.906,4.906,0,0,0-3.5-5.742l-.339-.074A1.874,1.874,0,0,1,1.6,17.069a16.274,16.274,0,0,1-.083-1.946,12.345,12.345,0,0,1,.112-2.088,1.826,1.826,0,0,1,1.254-1.27l.584-.139A4.781,4.781,0,0,0,6.179,9.412a4.9,4.9,0,0,0,.485-3.68l-.112-.355a1.824,1.824,0,0,1,.5-1.76A13.454,13.454,0,0,1,8.754,2.5a12.741,12.741,0,0,1,1.782-.915,1.828,1.828,0,0,1,1.786.432l.4.421a5.111,5.111,0,0,0,6.71-.149l.251-.278a1.923,1.923,0,0,1,1.757-.442,14,14,0,0,1,1.806.928,12.308,12.308,0,0,1,1.746,1.15,1.85,1.85,0,0,1,.456,1.736l-.168.566a4.881,4.881,0,0,0,3.483,5.733l.35.077a1.886,1.886,0,0,1,1.288,1.4,16.481,16.481,0,0,1,.088,1.952,11.934,11.934,0,0,1-.123,2.125m1.506-4.4h0a3.363,3.363,0,0,0-2.427-2.554l-.3-.064A3.392,3.392,0,0,1,27.13,8.66a3.349,3.349,0,0,1-.39-2.331l.152-.5a3.333,3.333,0,0,0-.885-3.294A12.5,12.5,0,0,0,24,1.188,14.559,14.559,0,0,0,21.955.149a3.39,3.39,0,0,0-3.392.84l-.216.243a3.618,3.618,0,0,1-4.557.144L13.434.989A3.435,3.435,0,0,0,10.99,0a2.786,2.786,0,0,0-.963.163A13.623,13.623,0,0,0,8,1.191a14.176,14.176,0,0,0-1.92,1.264,3.358,3.358,0,0,0-.968,3.371l.1.315a3.366,3.366,0,0,1-.346,2.522,3.251,3.251,0,0,1-1.8,1.5l-.52.122a3.342,3.342,0,0,0-2.4,2.443A13.725,13.725,0,0,0,0,15.124,15.008,15.008,0,0,0,.128,17.4h0a3.356,3.356,0,0,0,2.429,2.56l.3.064a3.377,3.377,0,0,1,2.4,3.9l-.147.486A3.374,3.374,0,0,0,6.133,27.84,16.279,16.279,0,0,0,8,29.06a13.925,13.925,0,0,0,2.037,1.035,2.748,2.748,0,0,0,.936.157,3.5,3.5,0,0,0,2.464-1l.2-.227a3.472,3.472,0,0,1,4.6-.109l.323.344a3.461,3.461,0,0,0,2.44,1,2.8,2.8,0,0,0,.965-.171A14.737,14.737,0,0,0,24,29.056a14.059,14.059,0,0,0,1.92-1.27,3.325,3.325,0,0,0,.968-3.363l-.1-.32a3.389,3.389,0,0,1,.339-2.517A3.329,3.329,0,0,1,29,20.063l.454-.109a3.276,3.276,0,0,0,2.379-2.378A12.425,12.425,0,0,0,32,15.114a15.065,15.065,0,0,0-.133-2.275" transform="translate(0 0.005)"/></svg>