<svg xmlns="http://www.w3.org/2000/svg" width="25.419" height="25.419" viewBox="0 0 25.419 25.419"><defs><style>.a,.b{fill:#b7b7b7;}.a{opacity:0;}</style></defs><rect class="a" width="25.419" height="25.419" transform="translate(25.419 25.419) rotate(180)"/><path class="b" d="M19.444,14.707a1.055,1.055,0,0,0-1.486,0,1.04,1.04,0,0,0,0,1.478l.3.3H16.607a4.162,4.162,0,1,1,0-8.324h1.664l-.314.3a1.036,1.036,0,0,0,0,1.478,1.066,1.066,0,0,0,1.486,0l2.093-2.081a1.051,1.051,0,0,0,0-1.478L19.444,4.3a1.055,1.055,0,0,0-1.486,0,1.04,1.04,0,0,0,0,1.478l.3.3H16.607a6.29,6.29,0,0,0-5.234,2.8,6.29,6.29,0,0,0-5.234-2.8H4.047a1.041,1.041,0,1,0,0,2.081H6.14a4.162,4.162,0,1,1,0,8.324H4.047a1.041,1.041,0,1,0,0,2.081H6.14a6.29,6.29,0,0,0,5.234-2.8,6.29,6.29,0,0,0,5.234,2.8h1.664l-.314.3a1.036,1.036,0,0,0,0,1.478,1.066,1.066,0,0,0,1.486,0l2.093-2.081a1.051,1.051,0,0,0,0-1.478Z" transform="translate(0.289 0.385)"/></svg>