<svg xmlns="http://www.w3.org/2000/svg" xmlns:xlink="http://www.w3.org/1999/xlink" width="29.486" height="29.486" viewBox="0 0 29.486 29.486"><defs><style>.a{opacity:0;}.a,.b{fill:url(#a);}</style><linearGradient id="a" x1="0.5" x2="0.5" y2="1" gradientUnits="objectBoundingBox"><stop offset="0" stop-color="#cbc0ff"/><stop offset="1" stop-color="#721df6"/></linearGradient></defs><rect class="a" width="29.486" height="29.486"/><path class="b" d="M18.642,8.446a1.206,1.206,0,1,0-1.877,1.516,4.813,4.813,0,0,1,0,5.7,1.206,1.206,0,0,0,1.877,1.516,7.219,7.219,0,0,0,0-8.735Z" transform="translate(3.831 1.93)"/><path class="b" d="M19.974,5.287a1.176,1.176,0,0,0-1.7.162,1.28,1.28,0,0,0,.156,1.758,8.584,8.584,0,0,1,3.176,6.52,8.584,8.584,0,0,1-3.176,6.52,1.261,1.261,0,0,0-.43.845,1.277,1.277,0,0,0,.274.913,1.179,1.179,0,0,0,1.7.162,11.051,11.051,0,0,0,4.043-8.44A11.051,11.051,0,0,0,19.974,5.287Z" transform="translate(4.267 1.016)"/><path class="b" d="M17.739,3.152a1.175,1.175,0,0,0-1.2,0l-7.8,5.5H2.723a1.22,1.22,0,0,0-1.2,1.237V18.38a1.22,1.22,0,0,0,1.2,1.237H8.739l7.712,5.443a1.25,1.25,0,0,0,.686.21,1.22,1.22,0,0,0,1.2-1.237V4.24a1.244,1.244,0,0,0-.6-1.089ZM15.97,21.707,9.8,17.353a1.18,1.18,0,0,0-.686-.21H3.9V11.131h5.21a1.18,1.18,0,0,0,.686-.21l6.136-4.33Z" transform="translate(0.309 0.607)"/></svg>